<svg xmlns="http://www.w3.org/2000/svg" width="617.09" height="121.79" viewBox="0 0 617.09 121.79">
  <defs>
    <style>
      .a {
        fill: #b1c800;
      }

      .b {
        fill: #6f482c;
      }

      .c {
        fill: #7a9437;
      }
    </style>
  </defs>
  <g>
    <path class="a" d="M609.58,48.31l7.51-15.63-48.91,3.88-4.32,8.72Z"/>
    <path class="a" d="M91.86,44.07H76.23l.36-29.49H92.22Z"/>
    <path class="b" d="M246.52,3l17.3-.18V49.88l-17.3.19Z"/>
    <path class="a" d="M213.05,15V30.63l-55.38-.36-.06-15.63Z"/>
    <path class="a" d="M213.7,70.55H198.07l.36-55.39,15.63-.05Z"/>
    <path class="b" d="M108.51,22.72a11,11,0,1,0-11-11A11,11,0,0,0,108.51,22.72Z"/>
    <path class="c" d="M378.53,24.55a8.37,8.37,0,1,0-8.36-8.38v0A8.36,8.36,0,0,0,378.53,24.55Z"/>
    <path class="c" d="M399.92,23a8.37,8.37,0,1,0-8.36-8.38v0A8.36,8.36,0,0,0,399.92,23Z"/>
    <path class="c" d="M104.63,77l31.75-40.8-21.86-9.94Z"/>
    <path class="c" d="M76.59,14.6l59.8,21.6,3.78-21.6Z"/>
    <path class="c" d="M317.26,63.81,348,23.35l-20.46-9.3Z"/>
    <path class="c" d="M355.83,19.54l13.05,49.69,23.46-13.55Z"/>
    <path class="c" d="M538.17,25.49a8.37,8.37,0,1,0-8.37-8.37h0a8.36,8.36,0,0,0,8.35,8.37Z"/>
    <path class="c" d="M559.55,23.9a8.37,8.37,0,1,0-8.36-8.38h0a8.36,8.36,0,0,0,8.35,8.37Z"/>
    <path class="c" d="M476.87,64.74,507.6,24.28,487.15,15Z"/>
    <path class="c" d="M515.44,20.47l13,49.69L552,56.61Z"/>
    <path class="c" d="M164.18,75.56,196.33,9.25,176.92,0Z"/>
    <path class="c" d="M0,77.1l55.87-55L30.75,4.2V17.44l-9.3,19Z"/>
    <path class="b" d="M435.86,28.69l15.62-.17V70.76l-15.62.17Z"/>
    <path class="c" d="M407.91,49.6l59.62-28.16L451.88,4.16Z"/>
    <path class="a" d="M231.54,36.05l-.21-17.3,77.21-.22.21,17.31Z"/>
    <path class="c" d="M264.38,81.41,298.6,12.33,276.51,4Z"/>
    <path class="c" d="M24.46,114c-.83-.08-1.68-.13-2.53-.17s-1.71-.07-2.58-.09l-2.59-.08H13.2a2.09,2.09,0,0,0-.5,0,2.09,2.09,0,0,1-.5,0l-.13-.06h-.13l-.13-.06-.13-.07a.6.6,0,0,0-.09-.15.51.51,0,0,1-.07-.17v-.39l.18-.37a3.44,3.44,0,0,1,1.19-.22h1.23a8.55,8.55,0,0,1,1.24,0h1.26c.71,0,1.44.07,2.18.07a15.77,15.77,0,0,1,2.18.1,14.27,14.27,0,0,0,2.17.07,6.28,6.28,0,0,1,2.11.31l.09.15a.46.46,0,0,1,.08.19v.37l-.18.36-.17.1a.68.68,0,0,1-.2.07h-.2Zm9.9,5.35-.59-.15-.59-.16a1.26,1.26,0,0,1-.53-.32,6.25,6.25,0,0,0-.5-.4q-.19-.25-.39-.54a1.54,1.54,0,0,1-.28-.61c-.05-.22-.09-.44-.13-.66a5,5,0,0,1-.05-.67,2,2,0,0,1,.07-.31l.09-.33a1.11,1.11,0,0,1,.17-.3c.07-.09.15-.18.22-.28a10.13,10.13,0,0,1,.85-.61,3.25,3.25,0,0,1,.94-.4,5.65,5.65,0,0,1,1-.17,9.91,9.91,0,0,1,1.09,0V113l-.15-1a5.86,5.86,0,0,0-.22-.92,3.92,3.92,0,0,0-.41-.85,3.1,3.1,0,0,0-.66-.74,1.52,1.52,0,0,0-.47-.2l-.49-.11a4.27,4.27,0,0,1-.48-.13,1.88,1.88,0,0,1-.45-.22.6.6,0,0,0-.09-.15.36.36,0,0,1-.07-.17.43.43,0,0,1,0-.16v-.19l.18-.37.17-.09a.4.4,0,0,1,.18-.07h.43a1.38,1.38,0,0,0,.53.17,1.68,1.68,0,0,1,.54.11,4.77,4.77,0,0,1,.52.22,2.87,2.87,0,0,1,.48.28l.44.44a7,7,0,0,1,.72,1,3.77,3.77,0,0,1,.44,1.17q.14.62.21,1.23c0,.42.08.87.11,1.33a4.51,4.51,0,0,1,.9,0c.31,0,.61.06.91.08h1.77v-1.55l-.07-1.25,0-.13v-.13a.29.29,0,0,1,0-.13l.08-.13a.42.42,0,0,0,.14-.09.53.53,0,0,1,.17-.08h.35l.37.19a1.36,1.36,0,0,1,.2.81,6.32,6.32,0,0,0,0,.87,6.61,6.61,0,0,1,0,.89,6.17,6.17,0,0,0,0,.86,3.84,3.84,0,0,1,.48,0,1.77,1.77,0,0,0,.46,0,3.84,3.84,0,0,1,.48,0,.83.83,0,0,1,.42.18l.1.15a.46.46,0,0,1,.07.16v.35l-.19.37-.14.1a.51.51,0,0,1-.17.07h-.39L42,115.06v.88c0,.2,0,.41,0,.61v.63a3.15,3.15,0,0,0,.06.61,2.22,2.22,0,0,1,0,.63l-.19.37a.42.42,0,0,0-.14.09.51.51,0,0,1-.17.07h-.35l-.37-.18a2.13,2.13,0,0,1-.26-.89v-2a5.57,5.57,0,0,1,0-1H39a3.54,3.54,0,0,1-.91-.08,4.92,4.92,0,0,0-.94,0,5.55,5.55,0,0,1-.09,1c-.06.3-.13.61-.21.92a3.39,3.39,0,0,1-.33.87c-.15.27-.31.52-.48.77l-.37.37a1.23,1.23,0,0,1-.31.19l-.32.14a.92.92,0,0,1-.33.11,1.25,1.25,0,0,1-.35.21Zm.11-1.48.48-.33a2.3,2.3,0,0,0,.35-.61c.09-.21.17-.42.24-.64a2.65,2.65,0,0,0,.15-.69,4.33,4.33,0,0,0,0-.72H34.58l-.4.1-.39.12a1.36,1.36,0,0,0-.37.21.79.79,0,0,1-.39.16v.08l-.22.11-.07.37v.35a.65.65,0,0,0,.06.33.57.57,0,0,0,.15.3.73.73,0,0,1,.14.31,1.57,1.57,0,0,1,.3.2,1,1,0,0,0,.31.19,2,2,0,0,0,.35.09,1.35,1.35,0,0,1,.34.11Zm26,2.18L60,120a1.25,1.25,0,0,1-.45-.18,3.9,3.9,0,0,1-.4-.31l-.39-.37a5.37,5.37,0,0,1-.54-.93,4.35,4.35,0,0,1-.27-1,6.61,6.61,0,0,0-.24-1.07,2.42,2.42,0,0,0-.54-.93,2.7,2.7,0,0,0-.39-.27,1.53,1.53,0,0,0-.4-.21,3,3,0,0,0-.43-.11,1.93,1.93,0,0,0-.48,0,1.32,1.32,0,0,1-.44.08.74.74,0,0,0-.41.11l-.37.24c-.12.08-.24.18-.37.28-.12.36-.24.74-.36,1.12s-.26.75-.41,1.11a7.46,7.46,0,0,0-.37,1.13,4.86,4.86,0,0,1-.41,1.1.71.71,0,0,0-.14.1A.51.51,0,0,1,52,120h-.39l-.37-.19-.09-.14a.36.36,0,0,1-.07-.17.49.49,0,0,1,0-.17v-.18c.32-1,.64-2,1-2.94s.65-2,1-3,.65-2,1-2.94.75-1.92,1.09-2.88a.6.6,0,0,0,.15-.09.48.48,0,0,1,.16-.08h.36l.36.18.1.17a.68.68,0,0,1,.07.2v.44a6.37,6.37,0,0,1-.41,1.28l-.51,1.22c-.18.4-.33.81-.47,1.22s-.26.84-.38,1.31h.55l.24-.08a1.13,1.13,0,0,1,.26,0h.5a1.56,1.56,0,0,0,.48.14,1.9,1.9,0,0,1,.46.15l.41.24.38.24V114l.34.18v.07h.07a6.47,6.47,0,0,1,.63,1,3.44,3.44,0,0,1,.33,1.09,7.58,7.58,0,0,0,.24,1.15,2.21,2.21,0,0,0,.61,1l.22.13.22.1H61a.26.26,0,0,1,.19-.07.36.36,0,0,0,.2-.06l.19-.11a.65.65,0,0,0,.16-.13l.44-.77.15-.09a1,1,0,0,1,.17-.1.54.54,0,0,1,.18,0h.21l.37.18a.6.6,0,0,0,.09.15.36.36,0,0,1,.07.17v.38l-.15.32a3,3,0,0,1-.16.31,2.73,2.73,0,0,1-.21.3,1.75,1.75,0,0,0-.18.29h-.07v.08l-.5.27a3.38,3.38,0,0,1-.52.22,2.1,2.1,0,0,1-.55.13,2.06,2.06,0,0,1-.6-.08Zm14.9.82a5.51,5.51,0,0,1-1.26-.3,2.33,2.33,0,0,1-1-.81,1.43,1.43,0,0,1-.43-.7,6,6,0,0,1-.12-.85,4.82,4.82,0,0,1,.22-1,2.1,2.1,0,0,1,.51-.83,4.26,4.26,0,0,1,1.28-.72,4.17,4.17,0,0,1,1.49-.21l1.11.11v-1.29l-.26-2A2.31,2.31,0,0,1,77,112a.7.7,0,0,1,.13-.24.94.94,0,0,1,.31-.17.69.69,0,0,1,.35,0l.37.19a15.28,15.28,0,0,1,.37,2,20.15,20.15,0,0,1,.11,2.06l.81.17a3.17,3.17,0,0,1,.78.28,1.27,1.27,0,0,1,.2.31.65.65,0,0,1,0,.39l-.21.37a1,1,0,0,1-.33.17.9.9,0,0,1-.4,0l-.85-.22a3.37,3.37,0,0,1-.37,1.42,7.66,7.66,0,0,1-.82,1.22,2.4,2.4,0,0,1-1,.69,4.5,4.5,0,0,1-1.08.27Zm.81-1.7a2,2,0,0,0,.46-.5c.11-.19.23-.38.35-.57a2,2,0,0,0,.17-.5,1.33,1.33,0,0,0,.06-.56l-1.8,0a3.19,3.19,0,0,0-.59.21,2.77,2.77,0,0,0-.56.31c-.07.15-.14.3-.2.46a1.32,1.32,0,0,0-.09.48.8.8,0,0,0,.18.41,2.57,2.57,0,0,0,.33.33l.52.2a1.72,1.72,0,0,0,.55.1Zm-6-4.27-.37-.18a.76.76,0,0,1-.15-.28.48.48,0,0,0-.07-.31c.2-.72.41-1.42.65-2.11a18.19,18.19,0,0,1,.81-2H69l-.36-.19a1.17,1.17,0,0,1-.17-.31.69.69,0,0,1,0-.35l.19-.37a1.42,1.42,0,0,1,.9-.24h2.09c.12-.41.25-.82.39-1.22a4.23,4.23,0,0,1,.57-1.17A.92.92,0,0,1,73,106a.53.53,0,0,1,.35,0l.37.18a1.23,1.23,0,0,1,.17.32.81.81,0,0,1,0,.38c-.13.28-.24.55-.35.82a5.19,5.19,0,0,0-.28.87h1.4a3.32,3.32,0,0,0,.63,0,.75.75,0,0,1,.59.2,1.17,1.17,0,0,1,.17.31.69.69,0,0,1,0,.35l-.19.37a1.06,1.06,0,0,1-.59.21H72.64c-.35.76-.67,1.53-1,2.3a18.48,18.48,0,0,0-.78,2.35,2.68,2.68,0,0,1-.33.18.57.57,0,0,1-.34.08Zm11.63-2-.27-.09-.24-.13c-.47-.52-.94-1-1.41-1.52a7.87,7.87,0,0,0-1.53-1.29l-.15-.15a.92.92,0,0,1-.16-.31.53.53,0,0,1,0-.35l.18-.37a1.41,1.41,0,0,1,.32-.17.86.86,0,0,1,.39,0l.44.26v.08l.29.14.52.41,2.12,2.11a1.28,1.28,0,0,1,.23.37.82.82,0,0,1,0,.44l-.18.37a.61.61,0,0,1-.26.15Zm17.84-4.08-.37-.19A1.24,1.24,0,0,1,99,108a6.31,6.31,0,0,0-.08-.76,6.26,6.26,0,0,1,0-.75v-.8l.18-.37a.6.6,0,0,0,.15-.09.36.36,0,0,1,.17-.07h.35l.37.18a1.16,1.16,0,0,1,.22.7,5.08,5.08,0,0,0,0,.78,2.83,2.83,0,0,0,.07.76c.07.26,0,.51.07.75l-.18.37-.15.1a.36.36,0,0,1-.17.07h-.16Zm2.44-.08-.37-.18a2.57,2.57,0,0,1-.26-.7,4.92,4.92,0,0,1-.09-.76v-1.61l.18-.37.15-.09a.46.46,0,0,1,.16-.07h.36l.36.18a1.18,1.18,0,0,1,.23.71v.81a4.91,4.91,0,0,0,.09.77,4.11,4.11,0,0,1,.07.78l-.18.37-.15.09a.53.53,0,0,1-.17.08h-.38Zm-5.65,11a2.52,2.52,0,0,1-.72-.17,4.23,4.23,0,0,1-.68-.24l-.69-.31a3.77,3.77,0,0,1-.64-.39,4.38,4.38,0,0,1-.56-.86,9.25,9.25,0,0,1-.37-1,3.77,3.77,0,0,1-.14-1v-1.09c.1-.42.21-.83.35-1.24a6.29,6.29,0,0,1,.51-1.16,9.69,9.69,0,0,1,.71-1.09,7.44,7.44,0,0,1,.86-1l.3-.29.26-.26-1.33-.11H88.54l-.37-.18a.6.6,0,0,0-.09-.15A.33.33,0,0,1,88,109v-.36l.18-.36a1.47,1.47,0,0,1,.39-.21,1.55,1.55,0,0,1,.43,0h5.31a10.38,10.38,0,0,0,1.11.09,5.65,5.65,0,0,1,1.09.07,6.61,6.61,0,0,0,1.09,0,2,2,0,0,1,1,.24l.09.15a.48.48,0,0,1,.08.16v.35l-.18.37-.5.3a3.4,3.4,0,0,1-.5.26,3.06,3.06,0,0,0-.51.26,1.92,1.92,0,0,0-.48.37v.07a6,6,0,0,0-.63.5,3,3,0,0,0-.5.61q-.2.33-.42.66a3.6,3.6,0,0,0-.37.7c-.08.23-.16.45-.26.67a5.32,5.32,0,0,0-.26.66,1.85,1.85,0,0,0-.07.74,5.08,5.08,0,0,1,0,.78c0,.12.1.24.14.37a3.78,3.78,0,0,0,.17.35,3.78,3.78,0,0,1,.17.35,1.74,1.74,0,0,0,.18.33,5.85,5.85,0,0,0,.56.28,6.41,6.41,0,0,0,1.2.42,1.72,1.72,0,0,0,.64,0h.7l.37.19.1.15a.46.46,0,0,1,.07.16v.35l-.19.37a.83.83,0,0,1-.4.19h-.45a3.53,3.53,0,0,1-.46,0Zm17.06,1.81-.4-.18a2,2,0,0,1-.3-1v-3.14h-.07c-.37.22-.73.46-1.08.7l-1,.74c-.33.25-.67.5-1,.78a4.27,4.27,0,0,0-.88.92l-.15.09a.53.53,0,0,1-.17.08H108l-.36-.18-.1-.15a.46.46,0,0,1-.07-.16v-.36a.8.8,0,0,1,.11-.25c0-.08.11-.15.17-.23l.18-.22.2-.22a6.36,6.36,0,0,0,.87-.68,8.47,8.47,0,0,1,.89-.69c.31-.19.61-.4.91-.61l.88-.6v-.08h-.29a9.2,9.2,0,0,1-1.17.08H107.8a7.78,7.78,0,0,0-1.18.06l-.15-.06h-.16a.28.28,0,0,1-.15-.08L106,116a.6.6,0,0,0-.09-.15.48.48,0,0,1-.08-.16v-.35L106,115l.15-.1a.46.46,0,0,1,.16-.07H107l1.39-.06h1.4a8.3,8.3,0,0,0,1.41,0,12.77,12.77,0,0,1,1.38-.08v-.37l-.11-1h-.37l-1.07.08-.63-.33a1.06,1.06,0,0,1-.16-.34,1.21,1.21,0,0,1-.06-.38v-.84c0-.41.09-.83.13-1.25s.07-.84.09-1.26,0-.84.06-1.27a3.51,3.51,0,0,1,.24-1.2,2.57,2.57,0,0,1,.83-.63,7.78,7.78,0,0,0,.89-.5,7.33,7.33,0,0,0,.83-.64,1.37,1.37,0,0,1,1-.37l.37.18a.6.6,0,0,0,.09.15.46.46,0,0,1,.07.16v.36l-.18.36L113,106.75v.07l.91.1a7.56,7.56,0,0,1,.83.14,4.85,4.85,0,0,0,.85.13,2.57,2.57,0,0,1,.81.22,5.63,5.63,0,0,1,.22,1.28,9.65,9.65,0,0,0,.06,1.31,9.51,9.51,0,0,0,.11,1.31c.06.43.1.87.13,1.31l-.19.37a2,2,0,0,1-.55.35,1.32,1.32,0,0,1-.65.11H114V114l.07.63h5.63a2.32,2.32,0,0,1,1,.26l.1.15a.46.46,0,0,1,.07.16v.35l-.19.37-.14.1-.15.07h-.17a.22.22,0,0,0-.16,0c-.4,0-.8-.08-1.2-.1h-3.68v.07l1.16.6c.39.19.77.39,1.15.59s.76.4,1.13.62.74.46,1.1.71l.1.14a.51.51,0,0,1,.07.17v.39l-.19.37a.42.42,0,0,0-.14.09.36.36,0,0,1-.17.07H119l-.37-.18a1,1,0,0,0-.33-.28l-.39-.22a4.11,4.11,0,0,0-.39-.24l-.36-.22a6.86,6.86,0,0,1-.78-.35c-.25-.14-.49-.27-.74-.39l-.76-.39-.75-.39v1.55a5.23,5.23,0,0,1,0,.56v.57a5.14,5.14,0,0,0,.06.55,5.61,5.61,0,0,1,0,.58l-.18.37-.15.09a.33.33,0,0,1-.16.07h-.17Zm7-8.53-.74-.44a.73.73,0,0,0-.3-.28,2.56,2.56,0,0,1-.35-.22,1.86,1.86,0,0,0-.35-.22c-.12-.07-.25-.13-.37-.21l-.33-.18-.09-.15a.38.38,0,0,1-.08-.17v-.35l.19-.37.15-.09a.29.29,0,0,1,.16-.07h.39l.52.24c.17.09.33.18.5.29l.48.32a4.84,4.84,0,0,1,.46.33v.07l.33.15.11.11.09.15a.53.53,0,0,1,.08.17v.38l-.19.37-.15.1a.46.46,0,0,1-.16.07h-.35Zm-13.5-.21-.37-.19a.6.6,0,0,0-.09-.15.33.33,0,0,1-.07-.16V112l.18-.37a2.73,2.73,0,0,1,.58-.43c.21-.11.41-.22.61-.35l.59-.37a1.28,1.28,0,0,1,.66-.18l.37.18.09.15a.38.38,0,0,1,.08.17v.39l-.19.36a1.63,1.63,0,0,1-.4.24,2.34,2.34,0,0,0-.43.26,1.83,1.83,0,0,1-.42.26,1.52,1.52,0,0,0-.41.24v.08l-.16.09a.66.66,0,0,1-.19.09H107Zm8.35-.85v-.41l-.07-.52-.89-.07a5.67,5.67,0,0,1-.9-.11l-.91-.13a6.46,6.46,0,0,0-.88,0l-.08,1.21h2a1.37,1.37,0,0,0,.4.09h1.33Zm-.18-2.37v-.4l-.08-.59a4.08,4.08,0,0,0-.77-.17l-.82-.11-.81-.11q-.41-.06-.81-.09l-.07,1.1.83.08a5.08,5.08,0,0,1,.85.11,4.88,4.88,0,0,0,.85.07,3.4,3.4,0,0,1,.84.11Zm3.25-.33-.37-.18-.09-.15a.38.38,0,0,1-.08-.17v-.38l.19-.37.57-.52q.28-.26.57-.48c.2-.15.39-.31.58-.48a.84.84,0,0,1,.68-.22l.37.18a.6.6,0,0,0,.09.15.36.36,0,0,1,.07.17.43.43,0,0,1,0,.16v.19l-.18.37-.19.18-.25.17a1.64,1.64,0,0,0-.26.2l-.24.2a.61.61,0,0,0-.21.24l-.51.48h-.08v.08a.6.6,0,0,0-.15.09.33.33,0,0,1-.16.07.49.49,0,0,1-.17,0ZM108.7,109a1.15,1.15,0,0,1-.53-.23l-.48-.36a4.14,4.14,0,0,0-.48-.34l-.5-.29-.09-.15a.53.53,0,0,1-.08-.17v-.35l.19-.37.17-.09a.48.48,0,0,1,.2-.07h.44l.44.26,1,.77.33.15.09.15a.35.35,0,0,1,.08.16v.36l-.19.36-.15.1-.14.07h-.17a.29.29,0,0,0-.12.07Zm23.94,10.74-.94-.2a3.87,3.87,0,0,1-.87-.29,2.77,2.77,0,0,1-.76-.56l-.72-.72a5.29,5.29,0,0,1-1.22-2,11.14,11.14,0,0,1-.5-2.29c-.08-.79-.13-1.58-.14-2.37s0-1.57,0-2.36a4.08,4.08,0,0,1,.11-.59,5.58,5.58,0,0,1,.09-.59,4.22,4.22,0,0,0,.07-.61.89.89,0,0,1,.21-.54.42.42,0,0,0,.14-.09.36.36,0,0,1,.17-.07.49.49,0,0,1,.17,0h.18l.37.18.13.22a.5.5,0,0,1,.06.24v.54a9.85,9.85,0,0,0-.19,1,6.73,6.73,0,0,0-.07,1v2.13c0,.56.09,1.12.15,1.68a8.1,8.1,0,0,0,.29,1.62,5,5,0,0,0,.7,1.48,6.44,6.44,0,0,0,1.15,1.24,1.26,1.26,0,0,0,.39.22l.42.15a3.43,3.43,0,0,0,.46.11,4.17,4.17,0,0,0,.5,0,1.68,1.68,0,0,0,.5-.07L134,118a1,1,0,0,0,.44-.26,4.59,4.59,0,0,0,.39-.37l1.07-1.51.15-.09a.38.38,0,0,1,.17-.08h.35l.37.18.09.17a.67.67,0,0,1,.07.18.61.61,0,0,1,0,.19v.2l-.18.37h-.08c-.1.15-.2.3-.29.46a3,3,0,0,1-.34.46l-.35.44a2.16,2.16,0,0,1-.39.41,5.13,5.13,0,0,1-.6.44,2.44,2.44,0,0,1-.69.28c-.24.06-.49.11-.74.15a4.88,4.88,0,0,1-.76.07Zm20.79-.07a.62.62,0,0,1-.33-.17l-.31-.24-.34-.22-.31-.22c-.32-.27-.65-.53-1-.77s-.72-.5-1.06-.76-.66-.53-1-.81a11.77,11.77,0,0,0-1.06-.8l-1.11-1a1.67,1.67,0,0,0-.18-.28l-.2-.25a.72.72,0,0,1-.13-.28.92.92,0,0,1,0-.33.85.85,0,0,1,.15-.35l.2-.34a3.28,3.28,0,0,1,.2-.31l.23-.3.4-.33a3.2,3.2,0,0,0,.54-.5c.16-.18.31-.37.46-.55l.44-.56.45-.57a2.4,2.4,0,0,0,.46-.44,3.19,3.19,0,0,1,.44-.46,6.12,6.12,0,0,1,.5-.39,4.32,4.32,0,0,0,.52-.44l1.25-1.22.15-.1a.51.51,0,0,1,.17-.07h.35l.37.19a.42.42,0,0,0,.09.14.36.36,0,0,1,.07.17.61.61,0,0,1,0,.19v.2l-.26.44-.55.56-.67.51-.14.22-.34.3-.22.11v.07a1.85,1.85,0,0,1-.33.21.83.83,0,0,0-.3.26,1.68,1.68,0,0,1-.24.29l-.27.28h-.08a4.29,4.29,0,0,1-.4.55c-.15.18-.29.35-.43.54s-.28.36-.42.53-.31.35-.48.52l-.19.19-.14.13-.15.11a.4.4,0,0,0-.13.13.42.42,0,0,0-.09.14v.11h.07l.55.44c.15.15.3.29.47.43l.47.41.5.4a5.91,5.91,0,0,0,.52.35,3,3,0,0,0,.5.45l.54.38a3.87,3.87,0,0,0,.53.37c.19.11.36.23.54.35v.08l.44.26a1.12,1.12,0,0,0,.28.25l.31.21.3.2a1.25,1.25,0,0,1,.26.3V119l-.18.37a.6.6,0,0,0-.15.09.51.51,0,0,1-.17.07h-.16Zm21.76,2a7.79,7.79,0,0,1-1.11-.67l-1-.74-1.05-.77a6.7,6.7,0,0,1-1-.92,1.88,1.88,0,0,0-.44-.45,6.25,6.25,0,0,1-.5-.4,4.89,4.89,0,0,1-.44-.47c-.14-.16-.28-.31-.43-.46h-1.14a8.92,8.92,0,0,1-.08,1.16c0,.38-.09.77-.12,1.15s-.08.76-.13,1.12a4,4,0,0,1-.3,1.08.6.6,0,0,0-.15.09.46.46,0,0,1-.16.07h-.35l-.37-.18-.1-.15a.51.51,0,0,1-.07-.17v-.16a.61.61,0,0,1,0-.19l.15-.94a9.26,9.26,0,0,1,.13-.92c0-.3.08-.63.11-1a8.39,8.39,0,0,0,.06-1h-.48a1.26,1.26,0,0,1-.43.08h-1.46a10,10,0,0,0-.16,1.08A7.77,7.77,0,0,1,164,119l-.15,1.09a3.5,3.5,0,0,1-.3,1l-.14.09a.36.36,0,0,1-.17.07h-.35l-.37-.18a.6.6,0,0,0-.09-.15.38.38,0,0,1-.08-.17v-.18a.67.67,0,0,1,0-.2,18.88,18.88,0,0,0,.33-2.11c.08-.71.18-1.42.32-2.12s.23-1.42.29-2.14a8.36,8.36,0,0,1,.43-2.09h.07l.07-.19a4.85,4.85,0,0,1,1.56-.25,10.67,10.67,0,0,0,1.6-.12,10.79,10.79,0,0,1,1.61-.09h1.66a14.14,14.14,0,0,0,1.72.19h1.73a12.67,12.67,0,0,1,1.74.08,8.69,8.69,0,0,1,1.68.29l.09.15a.38.38,0,0,1,.08.17v.38l-.18.41-.22.13a.41.41,0,0,1-.22,0h-.52a7.2,7.2,0,0,0-2.12-.2,14.17,14.17,0,0,1-2.16-.05c-.72-.08-1.44-.13-2.16-.17s-1.46,0-2.2,0a3.73,3.73,0,0,1-.67.09,2.46,2.46,0,0,0-.66.06,5.13,5.13,0,0,0-.67.09,2.73,2.73,0,0,1-.7,0,5.93,5.93,0,0,1-.07.59c0,.2,0,.41-.06.61a3.81,3.81,0,0,1-.07.59,5.62,5.62,0,0,0-.09.57h1.49l1.28-.09,1.27-.08H170c.59,0,1.18.09,1.77.11s1.19,0,1.78,0h1.75a9.07,9.07,0,0,1,1.72.2.6.6,0,0,0,.09.15.36.36,0,0,1,.07.17.43.43,0,0,1,0,.16v.19l-.18.37a1.34,1.34,0,0,1-.24.12.79.79,0,0,1-.26.08h-.57a.29.29,0,0,1,0,.13v.13a.19.19,0,0,1-.07.11.11.11,0,0,0-.06.11l-.22.26-.74.73h-.07l-.52.71a2.46,2.46,0,0,0,.41.38,4.53,4.53,0,0,0,.46.3l.48.28.46.29.09.15a.38.38,0,0,1,.08.17v.38l-.19.37-.15.1a.46.46,0,0,1-.16.07h-.17Zm-2.33-3.36.7-.85.48-.52h-2.62V117l1.4,1.36Zm1.77-3.14c-.51,0-1-.08-1.55-.08a11.05,11.05,0,0,1-1.53-.07c-.53-.07-1-.09-1.55-.11s-1,0-1.57,0h-2l-.37-.19-.09-.14a.38.38,0,0,1-.08-.17V114l.19-.37.24-.17a.44.44,0,0,1,.27-.09h3.07a15.11,15.11,0,0,1,1.51.11c.51,0,1,.08,1.48.09s1,0,1.5,0a4,4,0,0,1,1.42.26l.09.15a.38.38,0,0,1,.08.17v.35l-.18.37-.2.11-.21,0h-.24Zm-10.45-3.81-.37-.18-.13-.22a.49.49,0,0,1-.05-.24v-.54c.07-.39.12-.8.16-1.22s.07-.83.1-1.25a10.23,10.23,0,0,1,.14-1.24,4.75,4.75,0,0,1,.37-1.16l.15-.1.17-.09a.54.54,0,0,1,.18,0h.2a1.2,1.2,0,0,0,.59.15h1.92v-.63a2.45,2.45,0,0,1,.08-.29.63.63,0,0,1,.16-.26L168,104a.53.53,0,0,1,.17-.08h.35l.37.18a.6.6,0,0,0,.09.15.33.33,0,0,1,.07.16.61.61,0,0,1,0,.19v.79l2,.15v-1.15a1.72,1.72,0,0,1,.07-.21.83.83,0,0,1,.13-.18l.15-.09a.38.38,0,0,1,.17-.08H172l.37.18a.6.6,0,0,0,.09.15.33.33,0,0,1,.07.16v1.24a5.75,5.75,0,0,0,.83,0,7.89,7.89,0,0,1,.84,0,5.52,5.52,0,0,0,.81.06,1.31,1.31,0,0,1,.74.22A2.92,2.92,0,0,1,176,107v2.38a4.41,4.41,0,0,0,.15,1.14l-.18.37a.72.72,0,0,0-.19.11.4.4,0,0,1-.18.1h-.41l-1.35,0a7.32,7.32,0,0,1-1.33-.08,8.28,8.28,0,0,0-1.33-.07,8.07,8.07,0,0,1-1.38-.09h-4.18l-.7.14V111l-.14.09a.36.36,0,0,1-.17.07h-.16Zm10.34-1.59v-.84l-2-.12v.85Zm-3.4-.18v-.78h-.81l-1.29.12v.55Zm-3.62-.07v-.19l.08-.52h-1.74l-.63.19v.59h.15a1.88,1.88,0,0,1,.53-.07h1.61Zm7-2v-.25a2.36,2.36,0,0,0-.46-.1h-.48a3.84,3.84,0,0,0-.48,0h-.5v.29Zm-6.84-.11v-.7h-2.17l-.11.78h.14a1.82,1.82,0,0,1,.52-.08Zm3.48,0v-.44h-1a4.51,4.51,0,0,1-.52,0l-.49-.08v.67h.29Zm24.49,14.41-.37-.19a.64.64,0,0,0-.1-.13.24.24,0,0,1,0-.14.49.49,0,0,0,0-.17.38.38,0,0,1,0-.15,2.05,2.05,0,0,0,.1-.48v-2a3.84,3.84,0,0,1,0-.48,1.19,1.19,0,0,0,0-.46,1.85,1.85,0,0,1,0-.47l-1.07-.29a3.46,3.46,0,0,0-.41.87,7.62,7.62,0,0,0-.24.94c-.06.32-.14.63-.22.94a4.06,4.06,0,0,1-.35.87l-.15.09a.53.53,0,0,1-.17.08H192l-.36-.18-.1-.15a.46.46,0,0,1-.07-.16v-.36c.1-.27.19-.54.28-.81a7.72,7.72,0,0,0,.2-.83,5.93,5.93,0,0,1,.21-.83q.12-.41.27-.81l-.81-.11a4.28,4.28,0,0,0-.43.75l-.33.78c-.11.26-.23.52-.35.77s-.23.53-.33.8a.6.6,0,0,0-.15.09.56.56,0,0,1-.17.09.54.54,0,0,1-.18,0h-.2l-.37-.18a1.09,1.09,0,0,1-.13-.17.64.64,0,0,1-.08-.19v-.38a2.54,2.54,0,0,1,.24-.65c.11-.21.2-.42.29-.63s.18-.42.28-.63a5,5,0,0,0,.26-.64h-.78c-.17.27-.34.53-.52.79s-.33.53-.49.8l-.48.79-.5.79-.15.1-.17.09a.54.54,0,0,1-.18,0h-.2l-.37-.19-.1-.15a.46.46,0,0,1-.07-.16v-.35a7.36,7.36,0,0,1,.63-1.09c.24-.36.47-.72.68-1.09s.45-.73.7-1.09a11.14,11.14,0,0,0,.69-1.09l-.61-.17a2.15,2.15,0,0,0-.67-.07h-.68a1.13,1.13,0,0,1-.59-.2l-.09-.15a.53.53,0,0,1-.08-.17v-.35l.19-.41a.77.77,0,0,1,.41-.16H188a4.88,4.88,0,0,1,.75.2,5,5,0,0,0,.78.21,4.88,4.88,0,0,0,.85.07h.83l3.29-.11c.24.07.49.13.73.18l.72.17a6,6,0,0,0,.74.13,1.83,1.83,0,0,1,.72.22l.1.15a.46.46,0,0,1,.07.16v.36l-.19.36-.14.1-.15.07h-.17a.22.22,0,0,0-.16,0l-1.11-.23-1.13-.2a4.66,4.66,0,0,0-1.18,0h-1.2l-1.81.07v.18a13.71,13.71,0,0,1,1.54.13c.54.06,1,.14,1.47.23s1,.19,1.46.31a3.71,3.71,0,0,1,1.37.66,2,2,0,0,1,.37,1,6.13,6.13,0,0,0,.07,1.14c.07.37,0,.75.06,1.13a7.49,7.49,0,0,1,0,1.16v.5a.67.67,0,0,1-.07.24,1.59,1.59,0,0,1-.13.22l-.15.1a.46.46,0,0,1-.16.07H196Zm-14.63-4h-.13a.29.29,0,0,0-.13,0,.27.27,0,0,1-.12-.06l-.13-.07a1.3,1.3,0,0,0-.1-.15.46.46,0,0,1-.07-.16V117l.19-.37a.85.85,0,0,1,.55-.18,2.48,2.48,0,0,0,.61-.07c.19,0,.38-.1.57-.13l.59-.13.08-4.18V110.9a1.51,1.51,0,0,1-.52,0,4.86,4.86,0,0,0-.54,0h-.53a1.06,1.06,0,0,1-.45-.19l-.09-.14a.51.51,0,0,1-.07-.17v-.35l.18-.37a.76.76,0,0,1,.28-.15,1.82,1.82,0,0,1,.33,0H183v-.64a2.42,2.42,0,0,1,.06-.65,3.69,3.69,0,0,0,.07-.65.89.89,0,0,1,.26-.53l.15-.09a.35.35,0,0,1,.16-.08H184l.37.19.1.15a.33.33,0,0,1,.07.16.61.61,0,0,1,0,.19v.2a1.43,1.43,0,0,0-.09.41,1.14,1.14,0,0,1-.06.44,3.53,3.53,0,0,0,0,.46v.46l.6.08a3.82,3.82,0,0,1,.57.11,1.57,1.57,0,0,0,.61,0,.63.63,0,0,1,.55.19l.09.15a.35.35,0,0,1,.08.16v.35l-.18.37-.2.13a.54.54,0,0,1-.21.08h-.24a1,1,0,0,1-.24,0l-1.47-.26v4.91h.3a2.26,2.26,0,0,1,.37-.11h1.21l.37.18.09.15a.38.38,0,0,1,.08.17v.35l-.22.4a6.27,6.27,0,0,1-1.35.3c-.48,0-.95.12-1.41.2s-.91.19-1.36.3A7.58,7.58,0,0,1,181,117.83Zm14.19-5.21a9.28,9.28,0,0,0-1.17-.22c-.4-.05-.8-.1-1.2-.17a5,5,0,0,0-1.22,0h-2l-.74-.11-.48.07L188,112l-.14-.2a.57.57,0,0,1-.11-.22,1.13,1.13,0,0,1,0-.26V111a11.16,11.16,0,0,1,.13-1.45c.06-.45.13-1,.22-1.43s.15-.94.2-1.42a5.45,5.45,0,0,1,.33-1.38l.24-.15.28-.13a.81.81,0,0,1,.31-.06h.32a7.85,7.85,0,0,0,1.53.08,5.67,5.67,0,0,1,1.54.13c.49.11,1,.21,1.49.29a4.71,4.71,0,0,1,1.42.5,1,1,0,0,0,.11.17.52.52,0,0,1,.1.18.74.74,0,0,1,0,.21v1a9.45,9.45,0,0,1,.09,1.07v3.29l-.18.37-.17.09-.16.09a.6.6,0,0,1-.19.06Zm-.6-1.59v-.88a4.87,4.87,0,0,0-1.24-.35,11.73,11.73,0,0,0-1.33-.11,7.65,7.65,0,0,1-1.35-.08c-.45-.08-.88-.08-1.33-.13l-.11,1.26h3.66l.42.09a3,3,0,0,0,.43.09,1.77,1.77,0,0,0,.46,0,1.2,1.2,0,0,1,.42.08Zm-.07-2.47v-.44l-.07-1.11-1.15-.24a8.47,8.47,0,0,0-1.12-.2,5.92,5.92,0,0,0-1.19,0,8,8,0,0,1-1.2,0,2.26,2.26,0,0,0-.11.37,1.1,1.1,0,0,1-.05.39,1.08,1.08,0,0,0,0,.4,1,1,0,0,1,0,.39,8.6,8.6,0,0,0,1.23.15,9,9,0,0,1,1.26.06,10.37,10.37,0,0,1,1.25.11q.6.09,1.2.24Zm8.72,13.11-.37-.18a.77.77,0,0,1-.2-.52v-1.81a5.62,5.62,0,0,0,.07-.92V113.6H202a2.09,2.09,0,0,1-.43.11,1.62,1.62,0,0,1-.44,0,1.38,1.38,0,0,0-.45.08.9.9,0,0,1-.46,0l-.37-.18a.6.6,0,0,0-.09-.15.36.36,0,0,1-.07-.17.43.43,0,0,1,0-.16v-.22q.22-.37.48-.72l.52-.72a5.54,5.54,0,0,1,.57-.71,3.58,3.58,0,0,0,.53-.7l-.33-.26-1-1a.6.6,0,0,0-.09-.15.33.33,0,0,1-.07-.16v-.36a1.89,1.89,0,0,1,.31-.53,6.12,6.12,0,0,0,.39-.5c.13-.17.25-.34.39-.5a3.33,3.33,0,0,1,.46-.46,2.69,2.69,0,0,0,.5-.39l.48-.46a3.14,3.14,0,0,0,.42-.48,1.49,1.49,0,0,1,.49-.41h.51l.37.18.09.15a.38.38,0,0,1,.08.17v.35l-.19.37-.16.09a1.09,1.09,0,0,0-.17.13,1,1,0,0,0-.13.16l-.09.17a6.44,6.44,0,0,0-.56.48,6.3,6.3,0,0,1-.55.48,3.2,3.2,0,0,0-.54.5,3.8,3.8,0,0,0-.42.57v.11l.48.48V109l.52.29,2.25-2.21h.44l.37.18.09.15a.38.38,0,0,1,.08.17v.35l-.19.37c-.32.34-.65.68-1,1s-.67.66-1,1l-1,.94a4.73,4.73,0,0,0-.89,1.06h.74a1.89,1.89,0,0,1,.53-.08h1.15a1.88,1.88,0,0,0,.53-.07V112l-.14-.26a1.45,1.45,0,0,0-.17-.26.47.47,0,0,1-.11-.26,1.82,1.82,0,0,1,0-.33l.19-.37.14-.09a.53.53,0,0,1,.17-.08h.35l.37.18.11.11a8.36,8.36,0,0,1,.46.83c.14.29.26.57.37.85a6.65,6.65,0,0,0,.41.85,2.22,2.22,0,0,1,.27.94l-.18.37-.15.09a.35.35,0,0,1-.16.08h-.35l-.37-.19-.45-.88h-.7l-.92.07v3.25a2.65,2.65,0,0,1-.06.7,2.89,2.89,0,0,0,0,.72,4.33,4.33,0,0,1,0,.72,4.14,4.14,0,0,0-.06.7v1.41l-.19.37a.42.42,0,0,0-.14.09.36.36,0,0,1-.17.07h-.4Zm12.26-.55L214,121h-.41a3.81,3.81,0,0,0-.75-.07h-2.37a5.56,5.56,0,0,1-.82.09h-2.51l-.44-.22-.09-.15a.48.48,0,0,1-.08-.16v-.36l.19-.36a1.8,1.8,0,0,1,.94-.21h2a8.44,8.44,0,0,0,1-.09v-3.32h-1.15l-.7.07a.49.49,0,0,0-.24,0h-.24a.67.67,0,0,1-.2,0l-.21-.13a.42.42,0,0,0-.11-.15.32.32,0,0,1-.09-.17v-.35L208,115l.21-.13a.57.57,0,0,1,.22-.07h.9a.72.72,0,0,1,.32-.08h1v-1.07a2.22,2.22,0,0,1,.06-.51.8.8,0,0,1,.24-.45.42.42,0,0,0,.14-.09.36.36,0,0,1,.17-.07.49.49,0,0,1,.17,0h.18l.37.18.09.15a.41.41,0,0,1,.08.19v.4a.72.72,0,0,0-.08.32v1a3.22,3.22,0,0,1,.76,0,4.37,4.37,0,0,0,.72.06h.74a1.05,1.05,0,0,1,.66.22l.09.15a.35.35,0,0,1,.08.16v.36l-.19.36a.66.66,0,0,1-.4.17H213.1l-.24-.06h-.76v3.36l1.77.07h1.46a1.7,1.7,0,0,1,.45,0,.93.93,0,0,1,.39.18.6.6,0,0,0,.09.15.36.36,0,0,1,.07.17v.35l-.18.37a.6.6,0,0,0-.15.09.36.36,0,0,1-.17.07h-.17Zm-15-2.44-.13-.06h-.13a.31.31,0,0,1-.13-.06l-.13-.07a.6.6,0,0,0-.09-.15.36.36,0,0,1-.07-.17v-.35c.1-.24.2-.48.29-.72l.3-.7a5.59,5.59,0,0,0,.26-.72,2.25,2.25,0,0,1,.33-.7l.15-.09a.38.38,0,0,1,.17-.08h.35l.37.19a.6.6,0,0,0,.09.15.46.46,0,0,1,.07.16v.39c-.1.25-.18.49-.26.72a5.89,5.89,0,0,1-.26.7l-.29.71a6.16,6.16,0,0,1-.34.68l-.12.07-.13.08a.38.38,0,0,1-.15,0l-.08,0Zm5.54-.55-.13-.06h-.26l-.12-.08-.37-.64a3.43,3.43,0,0,1-.32-.67l-.26-.7a2.89,2.89,0,0,1-.16-.72l.18-.37a.6.6,0,0,0,.15-.09.36.36,0,0,1,.17-.07.43.43,0,0,1,.16,0h.19l.37.18a2.78,2.78,0,0,1,.33.67,5.89,5.89,0,0,0,.26.7,3.14,3.14,0,0,0,.37.64,1,1,0,0,1,.18.73l-.18.36a.57.57,0,0,0-.13.08l-.13.07a.38.38,0,0,1-.15,0l-.08,0Zm8.83-4.62-.56-.33-.4-.41c-.2-.2-.41-.39-.63-.59a4.1,4.1,0,0,0-.68-.5,4.82,4.82,0,0,1-.7-.48,3.23,3.23,0,0,0-.72-.42c-.2.19-.39.39-.58.59l-.57.57c-.2.19-.4.36-.61.53a2.07,2.07,0,0,0-.5.67.42.42,0,0,0-.14.09.53.53,0,0,1-.17.08h-.39l-.41-.18a.51.51,0,0,0-.09-.18.51.51,0,0,1-.07-.17.61.61,0,0,1,0-.19v-.2a.61.61,0,0,1,.15-.26,1.24,1.24,0,0,0,.18-.22,1.3,1.3,0,0,1,.19-.22l.22-.22.44-.37a5.22,5.22,0,0,0,.43-.39l.4-.42a3,3,0,0,0,.35-.45,2.27,2.27,0,0,1-.48-.27l-.44-.36a2.85,2.85,0,0,0-.46-.31,4.59,4.59,0,0,0-.5-.24l-.09-.15a.48.48,0,0,1-.08-.16V108l.19-.37.15-.1a.46.46,0,0,1,.16-.07h.36a1.27,1.27,0,0,1,.62.26l.57.43.56.38a2.31,2.31,0,0,0,.61.3l.07-.11,1.11-1.07.52-.56a8.27,8.27,0,0,1-1.11-.07,8.47,8.47,0,0,0-1.13-.08H208.4l-.4.06-.15-.06h-.14a.31.31,0,0,1-.13-.06l-.13-.07-.09-.15a.38.38,0,0,1-.08-.17v-.35l.19-.37a1.74,1.74,0,0,1,.83-.24H211l1,.11a6.34,6.34,0,0,0,1.07.06,9.91,9.91,0,0,1,1.09,0,2.1,2.1,0,0,1,1,.29.6.6,0,0,0,.09.15.36.36,0,0,1,.07.17.43.43,0,0,1,0,.16v.19l-.18.37-.26.22a1.49,1.49,0,0,0-.41.3l-.37.36-.35.37c-.11.13-.23.25-.35.37h-.07l-.48.56-.52.55c.22.17.46.33.7.48s.48.31.7.48.45.35.67.54.44.37.66.57v.07l.23.11.44.48v.45l-.19.4-.15.1a.46.46,0,0,1-.16.07h-.36Zm16.88,8.16a2.54,2.54,0,0,0-.72-.13h-2.35a4.43,4.43,0,0,1-.51.06H226.5a6.74,6.74,0,0,0-1-.08h-3l-.59.07a.61.61,0,0,0-.19,0h-.2a.64.64,0,0,1-.19-.08l-.16-.09-.09-.16a1.08,1.08,0,0,1-.08-.19v-.39c.08-.34.14-.69.19-1s.1-.71.16-1.05.12-.7.17-1a3,3,0,0,1,.33-1,1.61,1.61,0,0,0,.28-.17.69.69,0,0,1,.28-.11h.66l.93.12a.29.29,0,0,1,0-.13v-.11a.23.23,0,0,1,.07-.1.11.11,0,0,0,.06-.11l1.33-.92V115h-1l-1.36.15-.37-.18a.84.84,0,0,0-.11-.21l-.15-.2a.34.34,0,0,1-.07-.22v-.26a4.21,4.21,0,0,0,.12-1,3.34,3.34,0,0,1,.1-1,5.25,5.25,0,0,0,.13-1,2,2,0,0,1,.31-.88,1.37,1.37,0,0,1,.46-.21,2.26,2.26,0,0,1,.52,0h3.3a6,6,0,0,0,.84.09h1.73a1.33,1.33,0,0,1,.8.2,2.63,2.63,0,0,1,.25,1,5.88,5.88,0,0,0,.11,1c.05.29.1.7.13,1.07s.07.73.1,1.07l-.19.37a.7.7,0,0,1-.24.13l-.26.1H230a1.59,1.59,0,0,0-.48-.07H228l-.44.28c-.15.09-.3.18-.45.29l-.44.34-.44.31v.11a10.88,10.88,0,0,1,1.14.06c.37,0,.75.06,1.13.07h1.15a5.68,5.68,0,0,1,1.09.11l.62-.07.37.18a4.4,4.4,0,0,1,.32,1.07c.06.37.13.73.2,1.09s.13.73.18,1.11.09.76.12,1.13l-.3.51-.13.1-.15.09h-.16v-.08Zm-.67-1.55V120l-.37-2.18a7.69,7.69,0,0,0-1.27-.11q-.65,0-1.29-.06l-1.29-.09h-1.32l-1.92.08-.59-.08a3.84,3.84,0,0,1-.11.59,4.1,4.1,0,0,0-.11.61l-.06.63a3.1,3.1,0,0,1-.09.61h2.75a9.31,9.31,0,0,1,1.39.07,10.9,10.9,0,0,0,1.4,0q.31,0,.63-.06h2ZM230,113.4v-.15a1.68,1.68,0,0,1-.07-.5,1.77,1.77,0,0,0,0-.46,4,4,0,0,0-.07-.46,3.53,3.53,0,0,1,0-.46h-1a8.39,8.39,0,0,1-1-.06H224.3l-.18,2.18h.26a1.49,1.49,0,0,1,.66-.09h5Zm3.51-.89-.37-.18a.56.56,0,0,0-.09-.17.48.48,0,0,1-.07-.2v-.21a.67.67,0,0,1,0-.2v-.48l-.11-1.88c-.32,0-.66-.09-1-.11l-1-.1a8.34,8.34,0,0,0-1,0,4.19,4.19,0,0,1-1-.09h-5l-.74,0a2.21,2.21,0,0,0-.72.08,2.48,2.48,0,0,1-.72.07,4.06,4.06,0,0,0-.7.09l-.15.52c0,.17-.09.35-.13.54l-.09.55a5.42,5.42,0,0,0,0,.57v.34l-.18.36h-.08v.08a.6.6,0,0,0-.15.09.33.33,0,0,1-.16.07.49.49,0,0,1-.17,0h-.18l-.37-.18c-.05-.08-.09-.16-.13-.24a1.29,1.29,0,0,1-.08-.28V111a3.91,3.91,0,0,0,.14-.76,4.62,4.62,0,0,1,.15-.74,4.55,4.55,0,0,0,.17-.73,1.45,1.45,0,0,1,.28-.69L220,108a1.14,1.14,0,0,1,.7-.28l.81,0,.79-.07.8-.08v-.07a4,4,0,0,1-.35-.56l-.33-.57c-.12-.18-.23-.37-.34-.55a1.23,1.23,0,0,1-.16-.65l.18-.37.15-.09a.36.36,0,0,1,.17-.07.54.54,0,0,1,.18,0h.2l.41.22c.12.22.24.44.37.66s.24.45.37.67a3.92,3.92,0,0,0,.42.64,1.62,1.62,0,0,1,.32.69h1.92v-.07a2.65,2.65,0,0,1-.3-.55,2.62,2.62,0,0,0-.29-.58,3.76,3.76,0,0,1-.32-.55,1.2,1.2,0,0,1-.09-.65l.18-.37a.6.6,0,0,0,.15-.09.51.51,0,0,1,.17-.07h.35l.37.18a7.14,7.14,0,0,0,.4.71,3,3,0,0,1,.36.68,2.18,2.18,0,0,0,.38.66,1.26,1.26,0,0,1,.3.72l1.14.08a2.37,2.37,0,0,1,.32-.85l.46-.79q.23-.39.48-.78c.17-.26.36-.51.55-.76l.17-.11a.34.34,0,0,1,.19-.09h.38l.37.19.09.14a.38.38,0,0,1,.08.17V105l-.19.37-.15.15a4.21,4.21,0,0,0-.35.48c-.11.17-.21.34-.31.51s-.2.36-.32.54a2.73,2.73,0,0,0-.27.54l.55.07.58,0a1.34,1.34,0,0,1,.55.08,2.72,2.72,0,0,0,.57,0h.48l.37.18a1.43,1.43,0,0,1,.26.83c0,.3,0,.61.05.91a7,7,0,0,1,.06.92,7.06,7.06,0,0,0,0,.92.37.37,0,0,0,0,.21V112a.68.68,0,0,1-.07.2.56.56,0,0,0-.09.17l-.15.09a.36.36,0,0,1-.17.07h-.17Zm12.12,7.94h-.3a.33.33,0,0,1-.13-.07l-.13-.1-.15-.2a.43.43,0,0,1-.09-.22,1,1,0,0,0,0-.24,1.13,1.13,0,0,1,0-.26.69.69,0,0,0,0-.13v-.13a.29.29,0,0,1,0-.13.57.57,0,0,0,.08-.13l.22-.14a.64.64,0,0,1,.24-.1H246l.48.22v.07h.08l.12.2a2,2,0,0,1,.1.21,1.13,1.13,0,0,1,0,.26v.25l-.18.37h-.07v.08l-.21.13-.22.09-.24,0a1.12,1.12,0,0,1-.26-.08Zm-.08-3.73-.37-.18a.38.38,0,0,0-.09-.13.2.2,0,0,1-.06-.15.49.49,0,0,0,0-.17.33.33,0,0,1,0-.14v-1.67a2,2,0,0,0,.06-.35v-.75a1.93,1.93,0,0,1,0-.34v-5.72a.31.31,0,0,0,.06-.13v-.13a.5.5,0,0,1,0-.13l.08-.13.14-.09a.36.36,0,0,1,.17-.07H246l.37.18a.12.12,0,0,0,.07.13.31.31,0,0,1,.06.13V107l.06.13V113l-.11,1.51v1.59l-.23.48a.42.42,0,0,0-.14.09.36.36,0,0,1-.17.07.54.54,0,0,1-.18,0Zm12.08,4.58h-.26a.31.31,0,0,1-.13-.06l-.13-.07A.6.6,0,0,0,257,121a.33.33,0,0,1-.07-.16.61.61,0,0,1,0-.19v-.2c.17-.39.36-.79.55-1.18A11.86,11.86,0,0,0,258,118a6.6,6.6,0,0,1,.57-1.2,10.84,10.84,0,0,0,.61-1.17l-.63-.66v-.48a1.41,1.41,0,0,1,.14-.44l.23-.43a3.26,3.26,0,0,1,.24-.4c.08-.14.16-.28.23-.43a3.86,3.86,0,0,1-.49-.09,4,4,0,0,0-.5-.08h-.52a.68.68,0,0,1-.44-.21l-.09-.14a.38.38,0,0,1-.08-.17v-.35l.19-.37.24-.13a.71.71,0,0,1,.29,0h.61a5.33,5.33,0,0,1,.63.12q.31.06.63.15a2.71,2.71,0,0,0,.63.13,1.17,1.17,0,0,1,.59.26l.09.17a.4.4,0,0,1,.07.18.61.61,0,0,1,0,.19v.2a5,5,0,0,1-.26.52,3.94,3.94,0,0,1-.31.48,4.63,4.63,0,0,0-.31.46,1.75,1.75,0,0,0-.23.5l.48.29a2.39,2.39,0,0,1,.13.21.36.36,0,0,1,.06.2v.48a4.65,4.65,0,0,1-.2.52l-.26.49q-.13.24-.3.48a1.54,1.54,0,0,0-.24.5l.37.19V118l.33.19v.07a6.67,6.67,0,0,0,2.85.9c1,.09,2,.15,3,.17s2,0,3,.06a21.54,21.54,0,0,1,3,.24.42.42,0,0,0,.09.14.36.36,0,0,1,.07.17.49.49,0,0,1,0,.17v.18l-.18.37a1.35,1.35,0,0,1-.34.17,1.21,1.21,0,0,1-.38,0h-.83q-1.48-.08-3-.09c-1,0-2,0-3-.07a17.83,17.83,0,0,1-3-.37,6.53,6.53,0,0,1-2.68-1.28,2,2,0,0,1-.22.52,5,5,0,0,0-.26.52c-.07.17-.14.34-.22.51a3.6,3.6,0,0,1-.26.52l-.13.07a.57.57,0,0,1-.13.08.33.33,0,0,1-.14,0l-.14,0Zm7.76-2.66H265l-.13-.08-.09-.15a.86.86,0,0,1-.1-.16.61.61,0,0,1,0-.19v-.2c.1-.34.18-.7.26-1a9.51,9.51,0,0,0,.16-1.07c0-.36.06-.73.08-1.11s0-.76,0-1.13l-.18-.66-.22-.11a.88.88,0,0,0-.22-.1.4.4,0,0,1-.21-.09.26.26,0,0,0-.24,0c-.1.47-.17,1-.24,1.46s-.14,1-.24,1.46-.18.94-.24,1.42a6,6,0,0,1-.35,1.39l-.15.09a.35.35,0,0,1-.16.08h-.35l-.37-.18-.1-.15a1,1,0,0,1-.07-.15v-.16a.49.49,0,0,1,0-.17c.12-.66.24-1.33.37-2s.23-1.36.33-2,.21-1.37.33-2.05.23-1.36.33-2h-1.33a.12.12,0,0,1-.11.07h-.4l-.37-.19-.1-.12a.27.27,0,0,1-.05-.15.49.49,0,0,0,0-.17.38.38,0,0,1,0-.15.58.58,0,0,0,.05-.14v-.15a.21.21,0,0,1,.07-.13.38.38,0,0,0,.09-.13l.21-.13a.85.85,0,0,1,.22-.09,1,1,0,0,1,.24,0H262a.44.44,0,0,0,.16.06h1v-.59l-.15-1.78.06-.13v-.12a.31.31,0,0,1,.06-.13,1.11,1.11,0,0,0,.07-.13l.15-.1a.51.51,0,0,1,.17-.07h.35l.37.19a1.41,1.41,0,0,1,.2.66v.76a3.83,3.83,0,0,0,.05.76c0,.24,0,.49,0,.73h1.4l.37.19.09.15a.35.35,0,0,1,.08.16v.35l-.23.41-.14.09-.15.08h-1.37l-.22,1.55.41.1a1.79,1.79,0,0,1,.39.13,2.31,2.31,0,0,1,.35.18l.33.22V112l.22.11v.07h.08a1.26,1.26,0,0,1,.25.52,5.61,5.61,0,0,1,.13.59c0,.2.06.39.08.59s0,.41,0,.63a10.32,10.32,0,0,1-.06,1.11,4.84,4.84,0,0,1-.15,1.07,6.46,6.46,0,0,0-.18,1.07,3.17,3.17,0,0,1-.28,1l-.13.08-.13.07a.38.38,0,0,1-.15,0,.3.3,0,0,0-.12-.22Zm4.5,0-.37-.19a.6.6,0,0,0-.09-.15.33.33,0,0,1-.07-.16V118a.54.54,0,0,1,0-.18,1.94,1.94,0,0,1,.26-.61,1.18,1.18,0,0,0,.18-.63V114.4h-.48l-.45.07a3.23,3.23,0,0,1-.44,0h-.92l-.37-.19-.09-.15A.35.35,0,0,1,267,114v-.35l.19-.37a.64.64,0,0,1,.46-.24h1.13a2.28,2.28,0,0,0,.51-.09,2.92,2.92,0,0,1,.21-.56l.24-.53c.07-.19.14-.37.22-.56l.22-.53-.81-.07-.15.07-.17.05h-.35l-.37-.18a.6.6,0,0,0-.09-.15.36.36,0,0,1-.07-.17.43.43,0,0,1,0-.16V110l.18-.37a1.15,1.15,0,0,1,.35-.22l.41-.11H270a2.16,2.16,0,0,0,.44.1h.44a1.6,1.6,0,0,1,.43.11,4.11,4.11,0,0,1,.39.24v.08h.07l.09.16a1.08,1.08,0,0,1,.08.19v.39c-.08.19-.16.39-.26.59l-.3.59a6.57,6.57,0,0,0-.26.61c-.07.21-.14.41-.22.61v.11h1.22a.22.22,0,0,0,.16,0,.61.61,0,0,1,.19,0l.16.12.15.09.09.15a.3.3,0,0,1,.08.16v.4l-.19.37-.16.09a.64.64,0,0,1-.19.08H271.2v2.55a1.49,1.49,0,0,1-.13.37,2.06,2.06,0,0,1-.12.35c0,.11-.11.22-.17.33l-.2.35-.15.09a.38.38,0,0,1-.17.08h-.16Zm-3.14-7.39-.37-.19-.09-.14a.36.36,0,0,1-.07-.17.54.54,0,0,1,0-.18v-.21c.12-.47.25-.93.37-1.4s.26-.93.4-1.39.3-.91.45-1.38a9.56,9.56,0,0,1,.55-1.37.6.6,0,0,0,.15-.09.36.36,0,0,1,.17-.07h.35l.37.18a.6.6,0,0,0,.09.15.36.36,0,0,1,.07.17v.38l-.48,1.41h2.79a2,2,0,0,1,.83.24l.09.15a.53.53,0,0,1,.08.17v.35l-.18.37a.6.6,0,0,0-.15.09.33.33,0,0,1-.16.07h-.35a4.88,4.88,0,0,0-.85-.07h-1.7a4.8,4.8,0,0,1-.85-.08c-.08.23-.14.45-.21.69s-.13.46-.2.68a4.15,4.15,0,0,0-.15.7,1.26,1.26,0,0,1-.26.67l-.14.09a.56.56,0,0,1-.17.09.54.54,0,0,1-.18,0Zm-7.49-1.63-.37-.18a5.67,5.67,0,0,1-.52-.76c-.15-.26-.29-.51-.41-.77a3.75,3.75,0,0,0-.48-.76,1.37,1.37,0,0,1-.29-.85l.18-.37.15-.09a.48.48,0,0,1,.16-.08H258l.37.18a3.67,3.67,0,0,1,.42.61c.11.21.23.42.35.63a6.25,6.25,0,0,1,.33.63,2.06,2.06,0,0,0,.41.57l.09.15a.48.48,0,0,1,.08.16v.39l-.18.37a.6.6,0,0,0-.15.09.48.48,0,0,1-.16.08h-.3Zm28.18,10.49-.5-.13a1.25,1.25,0,0,1-.45-.18,3.9,3.9,0,0,1-.4-.31l-.39-.37a4.75,4.75,0,0,1-.53-.93,3.92,3.92,0,0,1-.28-1,6.61,6.61,0,0,0-.24-1.07,2.42,2.42,0,0,0-.54-.93,2.7,2.7,0,0,0-.39-.27,1.53,1.53,0,0,0-.4-.21,3,3,0,0,0-.43-.11,1.93,1.93,0,0,0-.48,0,1.32,1.32,0,0,1-.44.08.74.74,0,0,0-.41.11l-.37.24-.36.28c-.13.36-.25.74-.38,1.12s-.25.75-.4,1.11a7.46,7.46,0,0,0-.37,1.13,4.86,4.86,0,0,1-.41,1.1.71.71,0,0,0-.14.1.51.51,0,0,1-.17.07h-.39l-.37-.19-.09-.14a.36.36,0,0,1-.07-.17.49.49,0,0,1,0-.17v-.18c.32-1,.64-2,1-2.94s.65-2,1-3,.65-2,1-2.94.75-1.92,1.09-2.88a.6.6,0,0,0,.15-.09.48.48,0,0,1,.16-.08h.35l.37.18.1.17a.68.68,0,0,1,.07.2v.44a6.37,6.37,0,0,1-.41,1.28l-.51,1.22c-.18.4-.33.81-.47,1.22s-.26.84-.38,1.31h.55l.24-.08h.76a1.56,1.56,0,0,0,.48.14,1.9,1.9,0,0,1,.46.15l.41.24.38.24V114l.34.18v.07h.07a6.47,6.47,0,0,1,.63,1,3.44,3.44,0,0,1,.33,1.09,7.58,7.58,0,0,0,.24,1.15,2.21,2.21,0,0,0,.61,1l.22.13.22.1a.89.89,0,0,0,.23,0H288a.26.26,0,0,1,.19-.07.36.36,0,0,0,.2-.06l.19-.11a.65.65,0,0,0,.16-.13l.45-.77.14-.09a1,1,0,0,1,.17-.1.54.54,0,0,1,.18,0h.21l.37.18a.6.6,0,0,0,.09.15.36.36,0,0,1,.07.17.54.54,0,0,1,0,.18v.2l-.15.32a3,3,0,0,1-.16.31c-.07.1-.13.2-.21.3a1.75,1.75,0,0,0-.18.29h-.08v.08l-.49.27a3.38,3.38,0,0,1-.52.22,2.1,2.1,0,0,1-.55.13,2.35,2.35,0,0,1-.65-.06Zm20.27-11.26-.37-.19a1.28,1.28,0,0,1-.25-.68,6.31,6.31,0,0,0-.08-.76c0-.25,0-.5-.05-.75a4.27,4.27,0,0,1,0-.8l.18-.37a.6.6,0,0,0,.15-.09.36.36,0,0,1,.17-.07.43.43,0,0,1,.16,0h.19l.37.18a1.16,1.16,0,0,1,.22.7,5.08,5.08,0,0,0,0,.78,2.83,2.83,0,0,0,.07.76,4,4,0,0,1,.07.75l-.18.37-.15.1a.46.46,0,0,1-.16.07h-.34Zm2.44-.08-.37-.18a2.57,2.57,0,0,1-.26-.7,4.78,4.78,0,0,1-.09-.76v-1.61l.18-.37.15-.09a.46.46,0,0,1,.16-.07h.36l.37.18a1.22,1.22,0,0,1,.22.71v.81a6.48,6.48,0,0,0,.1.77,4.11,4.11,0,0,1,.07.78l-.18.37-.15.09a.53.53,0,0,1-.17.08h-.39Zm-5.65,11a2.52,2.52,0,0,1-.72-.17,4.23,4.23,0,0,1-.68-.24l-.69-.31a3.77,3.77,0,0,1-.64-.39,4.38,4.38,0,0,1-.56-.86,9.25,9.25,0,0,1-.37-1,3.36,3.36,0,0,1-.14-1v-1.09a10.89,10.89,0,0,1,.35-1.24,6.29,6.29,0,0,1,.51-1.16,9.69,9.69,0,0,1,.71-1.09,7.44,7.44,0,0,1,.86-1l.3-.29.26-.26-1.33-.11h-5.77l-.37-.18a.6.6,0,0,0-.09-.15.33.33,0,0,1-.07-.16.49.49,0,0,1,0-.17v-.19l.18-.36a1.47,1.47,0,0,1,.39-.21,1.55,1.55,0,0,1,.43,0h5.26a10.38,10.38,0,0,0,1.11.09,5.71,5.71,0,0,1,1.09.07,6.49,6.49,0,0,0,1.08,0,2.05,2.05,0,0,1,1,.24.6.6,0,0,0,.09.15.48.48,0,0,1,.08.16v.35l-.18.37-.5.3a3.4,3.4,0,0,1-.5.26,3.06,3.06,0,0,0-.51.26,2,2,0,0,0-.49.37v.07a6,6,0,0,0-.63.5,3,3,0,0,0-.5.61c-.13.22-.28.44-.42.66a3.6,3.6,0,0,0-.37.7c-.08.23-.16.45-.26.67a5.32,5.32,0,0,0-.26.66,1.85,1.85,0,0,0-.07.74,5.08,5.08,0,0,1,0,.78c.05.12.09.24.14.37a3.78,3.78,0,0,0,.17.35,3.78,3.78,0,0,1,.17.35,1.74,1.74,0,0,0,.18.33,5.85,5.85,0,0,0,.56.28,6.41,6.41,0,0,0,1.2.42,1.72,1.72,0,0,0,.64,0h.7l.37.19.09.15a.35.35,0,0,1,.08.16v.35l-.19.37a1,1,0,0,1-.4.19h-.45a3.53,3.53,0,0,1-.46,0Zm17.06,1.74-.4-.19-.09-.15A.28.28,0,0,1,321,121v-.34a2.18,2.18,0,0,1,.11-.44c.05-.14.1-.28.16-.42s.13-.28.19-.43a.87.87,0,0,0,.05-.48,3,3,0,0,1-.07-.66,2.7,2.7,0,0,0-.07-.63l-.15-.61-.15-.61h-3a3.87,3.87,0,0,0-.83.12,3.91,3.91,0,0,1-.83.15l-.37-.18-.09-.15a.38.38,0,0,1-.08-.17v-.35l.25-.44a5.44,5.44,0,0,1,1.11-.33,6.09,6.09,0,0,1,1.2-.11h2.46a2.77,2.77,0,0,1,.44-.81c.2-.25.38-.51.56-.78a7.54,7.54,0,0,0,.46-.83l.39-.83-1.93-.07a1.77,1.77,0,0,1-.46.07h-1a3.84,3.84,0,0,0-.48,0h-.33l-.15-.07-.14-.1-.1-.14a.51.51,0,0,1-.07-.17v-.35l.19-.37a1.28,1.28,0,0,1,.81-.18,6.46,6.46,0,0,0,.88,0l.87-.1a4.61,4.61,0,0,1,.91,0,3.68,3.68,0,0,1,.66.06h.69a4.93,4.93,0,0,1,.66.07,1.22,1.22,0,0,1,.57.28l.1.16a.86.86,0,0,1,.07.21v.44a6.4,6.4,0,0,1-.43.92c-.16.3-.31.6-.46.91a6.14,6.14,0,0,1-.53.89,6.91,6.91,0,0,0-.54.86h1.15a10.88,10.88,0,0,1,1.14.06c.37,0,.75.06,1.13.07a3.68,3.68,0,0,1,1.09.2.6.6,0,0,0,.09.15.36.36,0,0,1,.07.17.43.43,0,0,1,0,.16V116l-.18.37a.51.51,0,0,1-.26.14,1.59,1.59,0,0,1-.3.06h-.63l-.77-.08h-2.4v.11c.05.23.09.45.13.69s.07.47.09.7a4.33,4.33,0,0,1,0,.72v.74a1.24,1.24,0,0,1-.14.5c-.05.16-.11.31-.17.46a3.53,3.53,0,0,0-.15.46,1.57,1.57,0,0,1-.2.46l-.15.09a.35.35,0,0,1-.16.08h-.17Zm6-9h-.38l-.13-.08c-.05-.08-.09-.16-.13-.24a.58.58,0,0,1-.06-.26v-.57a1.75,1.75,0,0,1,.1-.44,2.4,2.4,0,0,0,.05-.46,1.76,1.76,0,0,1,.06-.46,1.29,1.29,0,0,0,0-.48c-.82-.13-1.64-.21-2.46-.26s-1.66-.09-2.5-.11l-2.49-.11-2.49-.15-.74.11a7.5,7.5,0,0,0-.11.81,7,7,0,0,1-.11.8,5.58,5.58,0,0,0-.09.81,1.66,1.66,0,0,1-.24.75l-.15.1a.51.51,0,0,1-.17.07h-.35l-.37-.19a.27.27,0,0,0-.09-.12.2.2,0,0,1-.06-.15.49.49,0,0,0,0-.17.38.38,0,0,1,0-.15l.15-.94c.05-.31.08-.62.11-.94s.06-.64.11-1a1.8,1.8,0,0,1,.37-.85,1,1,0,0,1,.5-.28,5.17,5.17,0,0,1,.55-.07,5.51,5.51,0,0,0,.57-.06h.6v-.11l-.28-.5a4.59,4.59,0,0,1-.24-.5l-.24-.52a.87.87,0,0,1-.09-.55l.18-.37.15-.09a.35.35,0,0,1,.16-.08h.36l.37.19a2.63,2.63,0,0,1,.36.63l.3.66a3.77,3.77,0,0,0,.37.65,1,1,0,0,1,.18.72l1.78.07v-.11a2.21,2.21,0,0,1-.23-.55,3.89,3.89,0,0,0-.18-.58c-.07-.18-.15-.36-.22-.55a1.15,1.15,0,0,1-.08-.61l.19-.37.15-.09a.33.33,0,0,1,.16-.07h.35l.41.18a3.64,3.64,0,0,1,.3.63c.07.22.14.45.22.68a5.17,5.17,0,0,0,.26.69,1.86,1.86,0,0,1,.14.7v.15l1.7.07v-.52a3,3,0,0,1,.29-.63,4.19,4.19,0,0,0,.32-.59l.26-.62a2,2,0,0,1,.35-.6l.15-.09a.33.33,0,0,1,.16-.07H326l.37.18.09.15a.38.38,0,0,1,.08.17v.39c-.1.19-.19.39-.28.59l-.26.59a3.15,3.15,0,0,1-.31.57,1.66,1.66,0,0,0-.26.61,5.21,5.21,0,0,1,.79,0,7,7,0,0,1,.78.11l.76.15a2.55,2.55,0,0,1,.7.25l.15.21a.34.34,0,0,1,.07.22v.53a6.32,6.32,0,0,0-.11.76,3.87,3.87,0,0,1-.11.76,3.29,3.29,0,0,0-.06.77,1.15,1.15,0,0,1-.2.74l-.13.08-.13.07a.38.38,0,0,1-.15,0,.4.4,0,0,0-.26-.1Zm17.36-2.77-.36-.18a1.29,1.29,0,0,1-.26-.68,6.31,6.31,0,0,0-.08-.76,6.42,6.42,0,0,1,0-.76v-.79l.18-.37.15-.09a.53.53,0,0,1,.17-.08H345l.37.19a1.1,1.1,0,0,1,.22.7,5.08,5.08,0,0,0,0,.78c0,.24.05.5.07.75s0,.51.07.76l-.18.37-.15.09a.48.48,0,0,1-.16.08h-.32Zm2.44-.07-.37-.18a2.52,2.52,0,0,1-.26-.71,4.8,4.8,0,0,1-.09-.75v-1.61l.18-.37L347,106a.36.36,0,0,1,.17-.07.43.43,0,0,1,.16,0h.19l.37.18a1.16,1.16,0,0,1,.22.7v.82a4.91,4.91,0,0,0,.09.77,4.11,4.11,0,0,1,.07.78l-.18.37-.15.09a.36.36,0,0,1-.17.07h-.38Zm-8.23,10.53a3.05,3.05,0,0,1-.6-.06A1.67,1.67,0,0,1,338,120a5.05,5.05,0,0,1-.53-.24,1.88,1.88,0,0,1-.48-.31,1,1,0,0,0-.11-.17.52.52,0,0,1-.1-.18v-.39l.19-.37.15-.09a.48.48,0,0,1,.16-.08h.39l.37.18.26.22.28.09a.63.63,0,0,0,.27.06h.59l.36-.22a2.06,2.06,0,0,0,.31-.28,3.34,3.34,0,0,1,.33-.32.7.7,0,0,0,.26-.33l.07-.44a4.6,4.6,0,0,0-.24-1.28,3.12,3.12,0,0,0-.64-1.1l-.87-1a1.94,1.94,0,0,1-.46-1.22,5.34,5.34,0,0,1,.63-.92,7.21,7.21,0,0,0,.64-.92l.59-1a3.81,3.81,0,0,0,.47-1,1.89,1.89,0,0,1-.78-.17,2.36,2.36,0,0,0-.78-.2,6.85,6.85,0,0,1-.79-.13,3.57,3.57,0,0,0-.8-.09h-.36l-.37-.18-.1-.15a.51.51,0,0,1-.07-.17v-.35l.19-.37a.76.76,0,0,1,.26-.16,1.09,1.09,0,0,1,.31-.08h.68a4.29,4.29,0,0,0,1,.18,3.81,3.81,0,0,1,1,.22,5,5,0,0,0,1,.28,1.94,1.94,0,0,1,.92.42v.08h.08a.72.72,0,0,0,.09.2.48.48,0,0,1,.07.2.89.89,0,0,1,0,.23v.22a11.12,11.12,0,0,1-.42,1.09,6.61,6.61,0,0,1-.57,1c-.23.33-.44.66-.65,1s-.44.65-.68,1a11.19,11.19,0,0,0,.88,1,4,4,0,0,1,.72,1.07,4.1,4.1,0,0,1,.35,1.24c.05.43.09.87.11,1.31a2,2,0,0,1-.09.35,1.28,1.28,0,0,1-.11.35.91.91,0,0,1-.17.34l-.22.29-.66.67a1.94,1.94,0,0,0-.43.27,2.11,2.11,0,0,1-.4.26,1.67,1.67,0,0,1-.45.13,2.4,2.4,0,0,1-.53.12Zm-4.95-.93h-.39l-.13-.08-.09-.15a.3.3,0,0,1-.08-.16.61.61,0,0,1,0-.19v-.2a6.76,6.76,0,0,0,.28-1.16c.06-.41.14-.81.22-1.2s.16-.8.22-1.2a3.45,3.45,0,0,1,.39-1.13l.15-.09a.53.53,0,0,1,.17-.08h.35l.37.18a.6.6,0,0,0,.09.15.33.33,0,0,1,.07.16.61.61,0,0,1,0,.19v.2a9.22,9.22,0,0,0-.29,1.15l-.24,1.2q-.12.61-.21,1.2a3.82,3.82,0,0,1-.33,1.14l-.13.08-.13.07a.38.38,0,0,1-.15,0,.44.44,0,0,0-.15-.12Zm12.37-.29-.37-.19c-.17-.38-.31-.77-.44-1.16s-.24-.77-.35-1.16-.24-.78-.39-1.17a6.28,6.28,0,0,1-.33-1.2l.18-.37.15-.09a.33.33,0,0,1,.16-.07h.36l.37.18a4.92,4.92,0,0,1,.51,1.15c.13.39.24.78.35,1.16s.24.77.39,1.17a4.22,4.22,0,0,1,.26,1.21l-.19.37-.14.1a.51.51,0,0,1-.17.07h-.35Zm8.83,2.1a1,1,0,0,1-.21-.09l-.18-.13-.17-.13-.18-.13-.43-.49-.4-.5c-.14-.18-.28-.35-.43-.52a1.57,1.57,0,0,0-.51-.41.71.71,0,0,0-.1-.14.51.51,0,0,1-.07-.17V118l.19-.37.16-.09a.64.64,0,0,1,.19-.08h.42l.37.19,1.63,2,.44.33.07.13a.31.31,0,0,1,.06.13.43.43,0,0,1,0,.16v.17l-.19.37-.15.09a.48.48,0,0,1-.16.08h-.35Zm13.53-1.66-.6-.15-.59-.16a1.51,1.51,0,0,1-.53-.32,6.25,6.25,0,0,0-.5-.4l-.39-.54a1.52,1.52,0,0,1-.27-.61,5.13,5.13,0,0,0-.13-.66,3.79,3.79,0,0,1-.06-.67c0-.1.05-.21.07-.31a1,1,0,0,1,.1-.33.87.87,0,0,1,.16-.3,3,3,0,0,0,.22-.28,10.13,10.13,0,0,1,.85-.61,3.25,3.25,0,0,1,.94-.4,5.65,5.65,0,0,1,1-.17,9.91,9.91,0,0,1,1.09,0V113l-.15-1a5.86,5.86,0,0,0-.22-.92,3.71,3.71,0,0,0-.41-.85,3.1,3.1,0,0,0-.66-.74,1.57,1.57,0,0,0-.46-.2l-.5-.11-.48-.13a1.65,1.65,0,0,1-.44-.22l-.1-.15a.36.36,0,0,1-.07-.17v-.35l.19-.37.16-.09a.44.44,0,0,1,.19-.07h.42a1.31,1.31,0,0,0,.54.17,1.62,1.62,0,0,1,.53.11,3.38,3.38,0,0,1,.52.22,2.87,2.87,0,0,1,.48.28l.44.44a7,7,0,0,1,.72,1,4.17,4.17,0,0,1,.45,1.17c.08.4.15.81.2,1.23s.08.87.11,1.33a4.51,4.51,0,0,1,.9,0c.31,0,.61.06.91.08h1.77v-1.55l-.07-1.25.05-.13a.29.29,0,0,0,0-.13.31.31,0,0,1,.06-.13,1.11,1.11,0,0,0,.07-.13l.15-.09a.48.48,0,0,1,.16-.08h.36l.36.19a1.45,1.45,0,0,1,.21.81,6.31,6.31,0,0,0,0,.87v.89a6.17,6.17,0,0,0,0,.86,3.84,3.84,0,0,1,.48,0,1.77,1.77,0,0,0,.46,0,3.84,3.84,0,0,1,.48,0,.83.83,0,0,1,.43.18.6.6,0,0,0,.09.15.33.33,0,0,1,.07.16.49.49,0,0,1,0,.17v.18l-.18.37-.15.1a.51.51,0,0,1-.17.07h-.38l-1.15-.11v.88c0,.2,0,.41,0,.61v.63a4.18,4.18,0,0,0,.05.61,2.22,2.22,0,0,1,0,.63l-.18.37a.6.6,0,0,0-.15.09.51.51,0,0,1-.17.07h-.35l-.37-.18a2.34,2.34,0,0,1-.26-.89v-2a5.57,5.57,0,0,1,0-1H373.4a3.54,3.54,0,0,1-.91-.08,4.92,4.92,0,0,0-.94,0,5.55,5.55,0,0,1-.09,1c-.06.3-.13.61-.2.92a4.58,4.58,0,0,1-.33.87c-.15.27-.31.52-.48.77l-.37.37a1.5,1.5,0,0,1-.32.19l-.31.14a1.28,1.28,0,0,1-.33.11,1.45,1.45,0,0,1-.22.21Zm.11-1.48.48-.33a2.84,2.84,0,0,0,.35-.61l.24-.64a4.26,4.26,0,0,0,.15-.69V115H369.1l-.41.1-.39.12a1.36,1.36,0,0,0-.37.21.86.86,0,0,1-.38.16v.08l-.23.11-.07.37a.7.7,0,0,0,.06.35c.06.11,0,.22.05.33a.85.85,0,0,0,.15.3.89.89,0,0,1,.15.31l.29.2a.8.8,0,0,0,.32.19,2,2,0,0,0,.35.09,1.42,1.42,0,0,1,.33.11Zm26.63-8.79-.37-.18a1.29,1.29,0,0,1-.26-.68,6.1,6.1,0,0,0-.08-.76c0-.24,0-.5-.05-.76a4.17,4.17,0,0,1,0-.79l.19-.37.14-.09a.38.38,0,0,1,.17-.08h.35l.37.19a1.1,1.1,0,0,1,.22.7,5.08,5.08,0,0,0,0,.78c0,.24.05.49.07.75a3.22,3.22,0,0,0,.08.76l-.19.37-.15.09a.35.35,0,0,1-.16.08h-.33Zm2.44-.07-.38-.18a2.5,2.5,0,0,1-.25-.71,6.42,6.42,0,0,1-.1-.75v-1.61l.18-.37.15-.09a.53.53,0,0,1,.17-.08h.35l.37.18a1.1,1.1,0,0,1,.22.7V107a5.18,5.18,0,0,0,.09.78,4.11,4.11,0,0,1,.07.78l-.18.37-.15.09a.36.36,0,0,1-.17.07h-.37Zm-6.65,11.15-.83-.11a2.33,2.33,0,0,1-.78-.18,4,4,0,0,1-.68-.37,3.49,3.49,0,0,1-.63-.52,2.81,2.81,0,0,1-.48-.7,3,3,0,0,1-.28-.77c-.06-.28-.12-.55-.17-.84a6.11,6.11,0,0,1-.07-.86,2.83,2.83,0,0,1,.19-.76,2.93,2.93,0,0,1,.37-.67c.14-.21.3-.41.46-.62a4.5,4.5,0,0,0,.42-.65,15.44,15.44,0,0,1-.79-1.44c-.24-.49-.45-1-.65-1.48s-.39-1-.59-1.48a7.61,7.61,0,0,1-.44-1.55l.18-.37.15-.09a.36.36,0,0,1,.17-.07h.35l.37.18a11,11,0,0,1,.57,1.32c.16.45.33.9.52,1.34s.37.88.57,1.31.4.87.63,1.32h.14a11,11,0,0,1,1.17-.74,9.4,9.4,0,0,1,1.25-.57l1.3-.46a3.22,3.22,0,0,1,1.38-.15l.37.19a.42.42,0,0,0,.09.14.53.53,0,0,1,.08.17v.35l-.19.37c-.44.1-.89.22-1.35.35a13.87,13.87,0,0,0-1.33.46,8.23,8.23,0,0,0-1.25.65c-.41.26-.81.52-1.2.79v.08a2.71,2.71,0,0,0-.41.42l-.37.48q-.18.24-.33.48l-.3.5-.07.59a4.63,4.63,0,0,0,.07.52,2.83,2.83,0,0,0,.13.5c.07.16.13.32.21.48a1.12,1.12,0,0,0,.33.42,2.12,2.12,0,0,0,.74.43,4.48,4.48,0,0,0,.89.15h1.84a1.68,1.68,0,0,1,.7-.13,2.5,2.5,0,0,0,.72,0,1.71,1.71,0,0,0,.65-.28,1,1,0,0,1,.7-.16l.37.18.09.15a.35.35,0,0,1,.08.16V119l-.19.37a3.23,3.23,0,0,1-1.11.52,6.2,6.2,0,0,1-1.21.18l-1.26.1a9.4,9.4,0,0,1-1.3,0Zm21.09.37-.37-.18a1.17,1.17,0,0,1-.17-.31,1.13,1.13,0,0,1-.06-.36V119c0-1,.05-2,.06-3s0-2,.06-3,.06-2,.11-3a17,17,0,0,1,.4-2.92.6.6,0,0,0,.15-.09.36.36,0,0,1,.17-.07.43.43,0,0,1,.16,0h.19l.37.18.13.22a.57.57,0,0,1,0,.26v.56c-.1,1-.17,2-.22,3s-.09,2-.11,3.09,0,2.07,0,3.1a16.71,16.71,0,0,1-.24,3l-.15.09a.48.48,0,0,1-.16.08h-.35Zm-6.14-5.6h-.26l-.13,0-.13-.08a2,2,0,0,1-.3-.88v-3l.14-3.06v-.15a.69.69,0,0,0,.05-.13v-.13a.5.5,0,0,1,.05-.13.57.57,0,0,0,.08-.13l.15-.09a.33.33,0,0,1,.16-.07h.35l.37.18a2.1,2.1,0,0,1,.13.26,2.29,2.29,0,0,1,.08.28,1.41,1.41,0,0,1,0,.29v.32c-.05.42-.08.84-.09,1.25s0,.85,0,1.28v2.6h.18a1.29,1.29,0,0,1,.41-.16l.44-.11.42-.13a1.5,1.5,0,0,1,.47-.08l.37.22a.6.6,0,0,0,.09.15.51.51,0,0,1,.07.17V114l-.18.37a2.91,2.91,0,0,1-.69.27c-.23.07-.47.13-.7.21s-.49.13-.74.18S406.65,115,406.39,115ZM425,118.2a3.85,3.85,0,0,1-.66-.13,1.91,1.91,0,0,1-.61-.29l-.55-.43-.54-.44a3.39,3.39,0,0,1-.44-.63,2.46,2.46,0,0,1-.26-.7,6.32,6.32,0,0,1-.11-.76,3.48,3.48,0,0,1,0-.79,6.87,6.87,0,0,1,.33-1.26,4.41,4.41,0,0,1,.59-1.14l.76-1a10.39,10.39,0,0,1,.87-1l1-.72a2.62,2.62,0,0,1,1.07-.46,9.89,9.89,0,0,1,1.22-.13h1.25a5.27,5.27,0,0,1,1.11.26c.34.13.68.26,1,.41a4.16,4.16,0,0,1,.92.57,10.24,10.24,0,0,1,.85.76c.32.39.63.79.94,1.2a5.21,5.21,0,0,1,.74,1.35,6.91,6.91,0,0,1,.37,1.49,13.25,13.25,0,0,1,.09,1.54c-.05.17-.09.35-.13.55a3.39,3.39,0,0,1-.13.55c-.05.18-.09.36-.13.56a1.37,1.37,0,0,1-.2.52l-.15.09a.46.46,0,0,1-.16.07h-.35l-.37-.18-.1-.15a.51.51,0,0,1-.07-.17v-.18a.74.74,0,0,1,0-.21,4.7,4.7,0,0,0,.12-.51,4.44,4.44,0,0,1,.15-.52,2.5,2.5,0,0,0,.13-.54,1.82,1.82,0,0,0,0-.57,7.79,7.79,0,0,0-.16-1.18,4.77,4.77,0,0,0-.41-1.11,6.71,6.71,0,0,0-.67-1c-.25-.32-.52-.62-.79-.92s-.35-.29-.53-.42a2.52,2.52,0,0,0-.58-.32,4.41,4.41,0,0,1-.59-.26,1.75,1.75,0,0,0-.63-.18A9.56,9.56,0,0,1,429,112c-.14.69-.29,1.39-.47,2.09a8.36,8.36,0,0,1-.77,2,7.74,7.74,0,0,1-1.29,1.72l-.32.22a1,1,0,0,1-.33.15l-.37.07A1.55,1.55,0,0,1,425,118.2Zm.41-1.55a4.11,4.11,0,0,0,1.11-1.5,18.62,18.62,0,0,0,.63-1.77,12.38,12.38,0,0,0,.38-1.81,10.61,10.61,0,0,0,.1-1.87h-.26a2.75,2.75,0,0,0-.7.1,1.91,1.91,0,0,0-.61.29c-.19.14-.37.29-.56.45s-.36.32-.53.49-.47.56-.69.85a6.49,6.49,0,0,0-.55,1,6.09,6.09,0,0,0-.39,1,2.77,2.77,0,0,0-.07,1.11.52.52,0,0,0,.07.31,1.73,1.73,0,0,0,.11.32,2.46,2.46,0,0,0,.17.27.91.91,0,0,0,.24.24l.31.24.33.23a2,2,0,0,0,.34.14,1.21,1.21,0,0,0,.38.06Zm27,4.8-.19-.06a.36.36,0,0,1-.18-.07.56.56,0,0,0-.17-.09.57.57,0,0,1-.16-.11l-.08-.19h-.07l-.33-.38a4.23,4.23,0,0,1-.33-.41,2.5,2.5,0,0,0-.34-.39,3.19,3.19,0,0,0-.4-.33c-.27-.3-.54-.6-.8-.91a6.83,6.83,0,0,0-.85-.85,6.83,6.83,0,0,1-.85-.85,6.75,6.75,0,0,0-.86-.83h-1.37v2.18l.15,2.51-.22.48-.15.1a.51.51,0,0,1-.17.07h-.35l-.37-.19a1.85,1.85,0,0,1-.26-1v-1.08a5.27,5.27,0,0,0-.06-1,9.55,9.55,0,0,1,0-1.07v-4.73a1.19,1.19,0,0,1,.07-.5c.07-.16,0-.32.08-.48a1.41,1.41,0,0,0,.07-.5.91.91,0,0,1,.19-.44.75.75,0,0,1,.63-.23,2.89,2.89,0,0,0,.72,0h.72a2.69,2.69,0,0,0,.7-.06v-.44l-.11-1.37v-.13a.29.29,0,0,0,0-.13.61.61,0,0,1,.05-.12l.08-.13.15-.1a.33.33,0,0,1,.16-.07h.35l.41.19a.85.85,0,0,1,.2.51V110a3.48,3.48,0,0,1,.79,0,6.43,6.43,0,0,1,.76.17,5,5,0,0,0,.77.15,1.76,1.76,0,0,1,.74.22,2.8,2.8,0,0,1,.2,1.18V113a6.51,6.51,0,0,0,.08,1.25c.08.41.06.83.11,1.22l-.19.37a.49.49,0,0,1-.27.15l-.34.06h-.31a.62.62,0,0,1-.33,0A1.41,1.41,0,0,0,450,116h-.46a3.53,3.53,0,0,1-.46,0h-.44l1.62,1.66h.11l1.63-1.74.26-.26a.91.91,0,0,0,.16-.11.34.34,0,0,1,.19-.09H453l.37.19a1.3,1.3,0,0,0,.1.15.33.33,0,0,1,.07.16v.35l-.19.37-.11.11-.37.41-.38.35-.41.35a3.41,3.41,0,0,0-.37.39,3.25,3.25,0,0,0-.31.42v.11l1,1.08.37.29v.07H453l.09.15a.53.53,0,0,1,.08.17v.35l-.18.37a.38.38,0,0,0-.13.09.26.26,0,0,1-.15.07.43.43,0,0,1-.16,0,.37.37,0,0,0-.18,0Zm-1.85-6.91v-.22l-.07-.48a2.43,2.43,0,0,1-.85,0,3.85,3.85,0,0,0-.83-.11H447l-.38.07a1.55,1.55,0,0,1-.43,0h-.85v.74h1a2.28,2.28,0,0,1,.64-.06,2.66,2.66,0,0,0,.69,0,3.82,3.82,0,0,1,.68-.06H449a1.86,1.86,0,0,0,.34.06h.73a3,3,0,0,1,.42.06ZM454.4,113l-.37-.18a8.16,8.16,0,0,0-.9-1.22c-.34-.37-.67-.75-1-1.13s-.65-.78-1-1.2A4.81,4.81,0,0,0,450,108.2a2.14,2.14,0,0,0-.41-.44l-.46-.37c-.16-.13-.31-.25-.46-.39l-.44-.39-.45-.48h-.11l-.55.45-.59.66a7.16,7.16,0,0,0-.65.57l-.63.63a7.16,7.16,0,0,0-.57.65,4.33,4.33,0,0,1-.59.62h-.07a7.09,7.09,0,0,1-.56.76c-.19.24-.4.48-.61.72a6.85,6.85,0,0,0-.57.76c-.17.26-.33.52-.48.79l-.15.1a.46.46,0,0,1-.16.07h-.39l-.37-.19-.09-.14a.38.38,0,0,1-.08-.17.61.61,0,0,1,0-.19V112a7.86,7.86,0,0,1,.54-.87l.63-.83q.32-.4.66-.81c.24-.27.45-.54.65-.81s.52-.51.76-.78.48-.54.75-.81.54-.53.82-.78.52-.5.77-.77l.48-.45.41-.25v-.11a.11.11,0,0,1,0-.08l.08-.09a.14.14,0,0,0,0-.09l.15-.1a.51.51,0,0,1,.17-.07H448l.37.19,1,1v.07l1,.74.52.45.52.48.44.44a4.72,4.72,0,0,1,.41.48c.12.17.24.34.37.5s.26.31.4.46v.07h0l.11.23h.07l.37.55.3.15.29.37a3.89,3.89,0,0,1,.28.39,2.11,2.11,0,0,0,.31.36.87.87,0,0,1,.26.39h.08a.56.56,0,0,0,.09.17.4.4,0,0,1,.07.18.74.74,0,0,1,0,.21v.22l-.18.37a.6.6,0,0,0-.15.09.36.36,0,0,1-.17.07h-.16Zm-4-.63v-.73a4.67,4.67,0,0,1-.65-.13,2.39,2.39,0,0,0-.65-.11h-1.44l-2.21.14-.08.82h.41a3.84,3.84,0,0,0,.76-.08,3.54,3.54,0,0,1,.73-.07h1.61l.37.07a2.38,2.38,0,0,0,.37.06H450a1,1,0,0,0,.39,0Zm22.12,9.24-.37-.19-.09-.16A.58.58,0,0,1,472,121v-.2a.67.67,0,0,1,0-.2v-.93l-.15-3.14h-.19c-.37,0-.73.12-1.09.19s-.71.13-1.07.17a3.48,3.48,0,0,0-1,.24,4.81,4.81,0,0,1-1.06.25l-.36-.18-.1-.15-.09-.16a.49.49,0,0,1,0-.17v-.19l.23-.36a3.67,3.67,0,0,1,1.14-.47l1.2-.24c.41-.07.81-.13,1.22-.18a5,5,0,0,0,1.2-.3v-8.72a1.85,1.85,0,0,1,.26-1l.15-.1a.51.51,0,0,1,.17-.07h.35l.37.19a1.59,1.59,0,0,1,.13.22.54.54,0,0,1,.05.22v.52l-.11,5.28v3.14h.26l.29-.08.3-.07a.81.81,0,0,1,.31,0h.31l.37.19a.71.71,0,0,0,.1.14.51.51,0,0,1,.07.17v.35l-.19.37a.94.94,0,0,1-.42.19l-.48.07-.48.09-.46.09v1l.15,3.7a.43.43,0,0,0,0,.16.61.61,0,0,1,0,.19.51.51,0,0,1-.07.17.71.71,0,0,0-.1.14l-.14.1a.51.51,0,0,1-.17.07h-.17ZM463,121.5l-.37-.19a.73.73,0,0,1-.15-.29c0-.11-.05-.21-.07-.32a1,1,0,0,1,0-.35.91.91,0,0,0,0-.33v-5.17h-.07c-.22.34-.43.69-.61,1s-.39.69-.61,1-.43.69-.61,1-.36.7-.54,1.07l-.14.09a.38.38,0,0,1-.17.08h-.35l-.37-.19a.6.6,0,0,0-.09-.15.35.35,0,0,1-.08-.16.61.61,0,0,1,0-.19v-.2a6.83,6.83,0,0,1,.71-1.4c.29-.45.56-.9.81-1.37s.5-.92.78-1.37a15.67,15.67,0,0,0,.77-1.4h-2.44l-.13-.06h-.13l-.13-.06-.12-.07a1.3,1.3,0,0,0-.1-.15.51.51,0,0,1-.07-.17v-.35l.19-.37a1.73,1.73,0,0,1,.77-.2h2.85v-3.92a3.93,3.93,0,0,1-.06-.48v-1.5a.49.49,0,0,0,.06-.17V105a.64.64,0,0,1,.08-.14.6.6,0,0,0,.09-.15l.15-.09a.48.48,0,0,1,.16-.08h.36l.37.19a.6.6,0,0,0,.09.15.46.46,0,0,1,.07.16V107l.08.37v3.88c.2,0,.41,0,.61,0h.62c.2,0,.41,0,.61,0a1,1,0,0,1,.56.2.6.6,0,0,0,.09.15.33.33,0,0,1,.07.16.49.49,0,0,1,0,.17v.18l-.18.37-.17.1a.67.67,0,0,1-.18.07h-.39a.42.42,0,0,0-.24-.07h-.76v.11a5.48,5.48,0,0,0,.61.9,5.28,5.28,0,0,1,.59.89,3.78,3.78,0,0,0,.61.87,1.37,1.37,0,0,1,.37,1l-.18.37-.15.09a.36.36,0,0,1-.17.07.43.43,0,0,1-.16,0H466l-.37-.18-.44-.61-.43-.61c-.13-.2-.25-.41-.37-.63a1.36,1.36,0,0,0-.46-.55v5.39l.08,1-.19.37-.15.09a.3.3,0,0,1-.16.08h-.17Zm6.72-7.39-.37-.18a2.54,2.54,0,0,0-.37-.43l-.46-.39-.46-.37a1.58,1.58,0,0,1-.37-.44v-.44l.19-.37.14-.09a.38.38,0,0,1,.17-.08h.35l.37.19a.42.42,0,0,0,.11.15.66.66,0,0,0,.17.12l.16.12.15.09.81.7a1.37,1.37,0,0,1,.13.2,2.12,2.12,0,0,1,.11.21.5.5,0,0,1,.06.24v.24l-.19.37-.14.09a.51.51,0,0,1-.17.07h-.39ZM460.9,111l-.41-.22a2.31,2.31,0,0,1-.31-.72,6.45,6.45,0,0,0-.22-.75c-.09-.25-.18-.49-.28-.72a3.9,3.9,0,0,1-.22-.76l.06-.13v-.13a.31.31,0,0,1,.06-.13,1.11,1.11,0,0,0,.07-.13.6.6,0,0,0,.15-.09.38.38,0,0,1,.17-.08h.35l.37.18a5.51,5.51,0,0,1,.31.76c.09.26.18.52.28.77s.19.52.27.78a3.4,3.4,0,0,1,.17.83l-.18.37-.15.09a.53.53,0,0,1-.17.08h-.32Zm3.7,0-.37-.18-.1-.17a.67.67,0,0,1-.07-.18.61.61,0,0,1,0-.19v-.2a4.22,4.22,0,0,0,.22-.77,5.54,5.54,0,0,1,.21-.8c.08-.26.17-.51.27-.76a3.6,3.6,0,0,1,.37-.7.6.6,0,0,0,.15-.09.36.36,0,0,1,.17-.07.43.43,0,0,1,.16,0h.19l.37.18a.56.56,0,0,0,.09.17.4.4,0,0,1,.07.18.74.74,0,0,1,0,.21v.22q-.18.36-.33.72a6.49,6.49,0,0,0-.26.74c-.07.26-.13.52-.19.79a1.77,1.77,0,0,1-.29.74l-.15.09a.48.48,0,0,1-.16.08h-.35Zm5.54-.29-.37-.19-.63-.73c-.1-.15-.21-.29-.32-.43l-.33-.42a3.46,3.46,0,0,1-.29-.45.75.75,0,0,1-.1-.51l.19-.37.15-.1a.33.33,0,0,1,.16-.07h.4l.37.19.82,1.18.29.22c.08.1.14.19.2.28l.21.26a.57.57,0,0,1,.13.27v.33l-.18.37-.15.1a.46.46,0,0,1-.16.07h-.39Zm13.62,9.34-.37-.18a.6.6,0,0,0-.09-.15.36.36,0,0,1-.07-.17v-.35l.18-.37a27.74,27.74,0,0,0,2.2-2c.7-.72,1.42-1.43,2.14-2.12s1.46-1.38,2.18-2.09,1.48-1.37,2.24-2h.44l.37.19.09.15a.48.48,0,0,1,.08.16v.39l-.23.41a20.15,20.15,0,0,0-2.23,2c-.7.73-1.42,1.43-2.14,2.11s-1.44,1.38-2.15,2.1a24.37,24.37,0,0,1-2.19,2Zm.3-6a9.41,9.41,0,0,0-1.05-.39l-1.09-.31-1.09-.3-1.09-.33-.09-.15a.35.35,0,0,1-.08-.16v-.35l.19-.37.2-.15a.4.4,0,0,1,.2-.09,1.13,1.13,0,0,1,.26,0h.26a4.35,4.35,0,0,0,1,.33c.34.07.67.16,1,.26l1,.31a7.35,7.35,0,0,1,1,.43.6.6,0,0,0,.09.15.51.51,0,0,1,.09.18.67.67,0,0,1,0,.2v.21l-.18.37a.38.38,0,0,0-.15.09.51.51,0,0,1-.17.07h-.3Zm.18-3.58-.9-.46-.92-.47c-.31-.14-.63-.28-.95-.4a4,4,0,0,1-.92-.52.6.6,0,0,0-.09-.15.51.51,0,0,1-.09-.16.61.61,0,0,1,0-.19V108l.18-.37.15-.09a.53.53,0,0,1,.17-.08h.35a7.56,7.56,0,0,0,.9.45c.31.12.62.26.93.4l.9.45c.3.15.59.31.89.48a.38.38,0,0,0,.13.18.55.55,0,0,1,.13.17.67.67,0,0,1,0,.2V110l-.18.37-.15.1a.46.46,0,0,1-.16.07h-.17Zm17,9.23-.37-.18-.09-.15a.38.38,0,0,1-.08-.17v-.39a23.9,23.9,0,0,1,1.3-2.31l1.5-2.31c.5-.77,1-1.54,1.55-2.29s1-1.52,1.5-2.31c-.59,0-1.19-.06-1.78-.11s-1.17-.08-1.75-.09-1.17,0-1.77,0a5.59,5.59,0,0,1-1.72-.24l-.09-.15a.48.48,0,0,1-.08-.16v-.35l.19-.37a.81.81,0,0,1,.24-.17.72.72,0,0,1,.29-.06h2.59a13.93,13.93,0,0,1,1.94.09,17.69,17.69,0,0,0,1.92.13,6.15,6.15,0,0,1,1.85.37.6.6,0,0,0,.09.15.36.36,0,0,1,.07.17.54.54,0,0,1,0,.18v.2l-.48.85a7,7,0,0,0-.65.89,8.4,8.4,0,0,1-.61.94c-.22.31-.43.62-.64.94s-.43.63-.65.93v.11a7.72,7.72,0,0,1,.87.74c.28.27.57.53.87.79s.58.52.87.8l.83.81.33.44.22.15v.11l.44.26V118H510a1.3,1.3,0,0,0,.1.15.36.36,0,0,1,.07.17v.35l-.19.37-.14.09a.36.36,0,0,1-.17.07h-.39l-.37-.18-.44-.37-.26-.26a6.2,6.2,0,0,0-.81-.89l-.89-.83c-.29-.28-.59-.55-.88-.81s-.59-.54-.89-.83h-.11c-.27.37-.53.73-.78,1.09s-.48.72-.72,1.11-.45.76-.64,1.14a11.58,11.58,0,0,1-.67,1.13l-.15.09a.29.29,0,0,1-.16.07.49.49,0,0,1-.17,0Zm20.35.74-.37-.18-.09-.17A.38.38,0,0,1,521,120v-.38c.13-.57.28-1.12.45-1.67s.33-1.09.46-1.66.28-1.12.44-1.66.32-1.11.46-1.7h-1.38a7.88,7.88,0,0,1-1.37-.08,10.59,10.59,0,0,0-1.38,0,3.78,3.78,0,0,1-1.33-.21l-.09-.15a.35.35,0,0,1-.08-.16V112l.19-.37a.62.62,0,0,1,.28-.17.92.92,0,0,1,.33,0h.68c.89,0,1.77.06,2.66.11s1.79.08,2.7.11,1.81.08,2.69.18,1.76.24,2.63.41a.6.6,0,0,0,.09.15.46.46,0,0,1,.07.16v.35l-.18.41-.23.13a.72.72,0,0,1-.25.07,1.31,1.31,0,0,1-.28,0h-.28l-1-.15-1-.14a6.74,6.74,0,0,0-1-.08h-1c-.22.61-.43,1.23-.62,1.84a16.83,16.83,0,0,0-.5,1.85c-.14.61-.3,1.23-.48,1.85s-.38,1.21-.58,1.81a.42.42,0,0,0-.14.09.51.51,0,0,1-.17.07h-.17ZM527,109a7.11,7.11,0,0,0-1.7-.39q-.88-.09-1.77-.15c-.59,0-1.18-.07-1.78-.09A6.91,6.91,0,0,1,520,108l-.09-.15a.3.3,0,0,1-.08-.16v-.35L520,107a.51.51,0,0,1,.28-.15h1c.52.05,1.05.1,1.59.13l1.61.11a9.62,9.62,0,0,1,1.56.19,5.53,5.53,0,0,1,1.48.46l.09.15a.35.35,0,0,1,.08.16v.36l-.19.36-.13.08-.13.07a.33.33,0,0,1-.14,0A.28.28,0,0,0,527,109Zm20.61,10.63-.37-.18A1.78,1.78,0,0,1,547,119q-.09-.25-.18-.54c-.06-.18-.12-.37-.17-.55l-.15-.54h-.11c-.76.15-1.54.27-2.32.35s-1.59.16-2.41.21a16.16,16.16,0,0,1-2.41,0,10.3,10.3,0,0,0-2.35.24.49.49,0,0,0-.17,0,.64.64,0,0,1-.18-.06.56.56,0,0,1-.17-.09.36.36,0,0,1-.24-.24.51.51,0,0,1-.07-.17v-.18a.67.67,0,0,1,0-.2c.3-.87.63-1.72,1-2.57s.78-1.69,1.22-2.53.91-1.66,1.38-2.46,1-1.59,1.5-2.38l.17-.11a.31.31,0,0,1,.18-.09.61.61,0,0,1,.19,0h.2l.37.18a.6.6,0,0,0,.09.15.53.53,0,0,1,.08.17v.35l-.18.37h-.07l-1.2,2c-.41.67-.81,1.36-1.19,2.07s-.74,1.42-1.09,2.12a18.44,18.44,0,0,0-.88,2.16H538a12.14,12.14,0,0,1,2-.11,16.68,16.68,0,0,0,2,0l2-.2,2-.23V116c-.07-.25-.15-.5-.24-.74a6.91,6.91,0,0,1-.22-.74,4.34,4.34,0,0,0-.24-.72,2.73,2.73,0,0,1-.18-.8l.18-.37a.6.6,0,0,0,.15-.09.36.36,0,0,1,.17-.07H546l.37.18a8.76,8.76,0,0,1,.64,1.63c.16.57.33,1.12.5,1.66s.34,1.09.52,1.65.33,1.1.48,1.64l-.19.37a.42.42,0,0,0-.14.09.36.36,0,0,1-.17.07.49.49,0,0,1-.17,0Zm9.86,2.07-.37-.18a1.52,1.52,0,0,1-.26-.85v-2.85h-1a3.93,3.93,0,0,1-.48.06h-1.52l-.37-.18a.6.6,0,0,0-.09-.15.33.33,0,0,1-.07-.16V117l.18-.36a1.08,1.08,0,0,1,.8-.28h.9a4.44,4.44,0,0,0,.89-.06,6.61,6.61,0,0,1,.89,0v-1.14h-1l-.44,0-.45.06a1.44,1.44,0,0,0-.4.13.69.69,0,0,1-.45,0l-.37-.18a.38.38,0,0,0-.09-.13.19.19,0,0,1,0-.15.43.43,0,0,0,0-.16.38.38,0,0,1,0-.15c.1-.45.18-.91.24-1.39s.13-1,.21-1.42.15-.93.24-1.4a6.75,6.75,0,0,1,.38-1.33L555,109a1.6,1.6,0,0,1,.59-.24,5.08,5.08,0,0,1,.67-.07h2.27a5.26,5.26,0,0,1,.89.08,3.24,3.24,0,0,0,.88,0,1,1,0,0,1,.8.25.56.56,0,0,0,.09.17.67.67,0,0,1,.07.18v.54a9.87,9.87,0,0,0,.08,1.22,9.08,9.08,0,0,0,.16,1.22,8.67,8.67,0,0,1,.11,1.25,4.91,4.91,0,0,0,.1,1.22l-.19.37-.18.09a.38.38,0,0,1-.17.08h-.35a1.73,1.73,0,0,0-.55-.15l-.59-.06h-1.22v1.1a7.06,7.06,0,0,0,.92,0,7.06,7.06,0,0,1,.92,0,7.37,7.37,0,0,0,.94,0,1.39,1.39,0,0,1,.87.18l.1.15a.51.51,0,0,1,.07.17v.35l-.19.37a.9.9,0,0,1-.44.18,2.26,2.26,0,0,1-.52,0h-1l-1.78-.08v3.33l-.19.37-.14.09a.36.36,0,0,1-.17.07h-.16Zm10.27-1-.37-.18c-.15-.25-.29-.5-.43-.76a4.47,4.47,0,0,1-.31-.79,4.7,4.7,0,0,0-.29-.82,4,4,0,0,1-.3-.81h-.11c-.15.25-.31.5-.48.74s-.34.49-.5.74a5.22,5.22,0,0,1-.54.7c-.19.22-.38.46-.55.7l-.15.1a.46.46,0,0,1-.16.07h-.36l-.36-.19-.1-.16a.62.62,0,0,1-.07-.19v-.38l.44-.67a4.82,4.82,0,0,0,.65-.77l.57-.84.56-.83a9.3,9.3,0,0,1,.59-.81v-.18c-.13-.35-.24-.71-.35-1.08s-.21-.75-.3-1.14a8.28,8.28,0,0,0-.31-1.11,7,7,0,0,1-.3-1.11h-.44a1.77,1.77,0,0,1-.46,0,1.77,1.77,0,0,0-.46,0,1.64,1.64,0,0,0-.43.13.8.8,0,0,1-.46,0l-.37-.18a.38.38,0,0,0-.09-.13.2.2,0,0,1-.06-.15.49.49,0,0,0,0-.17.2.2,0,0,1-.06-.14l.07-.13a.31.31,0,0,0,.06-.13.31.31,0,0,1,.06-.13.17.17,0,0,1,.07-.13,1,1,0,0,1,.52-.22l.57-.08h.57a5.9,5.9,0,0,0,.59-.06v-.11l-.81-4,.06-.13v-.13a.31.31,0,0,1,.06-.13.54.54,0,0,0,.07-.13l.15-.09a.36.36,0,0,1,.17-.07.43.43,0,0,1,.16,0h.19l.37.18a4.83,4.83,0,0,1,.31,1.11,11.17,11.17,0,0,0,.24,1.15,10.62,10.62,0,0,1,.24,1.12c.06.38.13.76.2,1.13h.08l.72-.13.72-.11c.24,0,.49-.07.74-.09a3.31,3.31,0,0,1,.77,0l.37.18.09.15a.38.38,0,0,1,.08.17v.35l-.19.37a1.16,1.16,0,0,1-.7.22h-.79l-.78.1a3.9,3.9,0,0,0-.76.13v.11c.1.27.19.53.26.79s.15.52.22.79.14.55.21.84a5.53,5.53,0,0,0,.24.79h.07l.35-.37a4.16,4.16,0,0,0,.32-.39,3,3,0,0,0,.27-.42c.09-.14.18-.28.28-.41l.15-.09a.33.33,0,0,1,.16-.07h.35l.37.18.1.15a.36.36,0,0,1,.07.17.67.67,0,0,1,0,.2v.22a3.34,3.34,0,0,1-.45.68l-.49.63a8.14,8.14,0,0,1-.54.63,4.63,4.63,0,0,0-.52.65c.1.37.22.73.35,1.09s.27.71.39,1.07a7.52,7.52,0,0,0,.46,1,2.54,2.54,0,0,1,.32,1.11l-.19.37a.6.6,0,0,0-.15.09.29.29,0,0,1-.16.07.49.49,0,0,1-.17,0ZM560,113.84v-.29l-.08-.63-.31-.09-.33-.1a2,2,0,0,0-.35,0h-.6v1.07Zm-3.11-.07V112.7H556l-.3-.07-.22.11a.62.62,0,0,0-.09.27,1.71,1.71,0,0,1,0,.32v.27a1.31,1.31,0,0,0,0,.28h.22Zm2.85-2.4v-1l-1.33-.12v1.11h.74Zm-2.85-.11v-1.11h-1.07l-.19,1a1.5,1.5,0,0,1,.3,0l.29.06h.32Zm2.74-3-.37-.18-.09-.15a.35.35,0,0,1-.08-.16v-.36l.24-.64c.09-.21.18-.42.28-.63s.21-.41.33-.61a7,7,0,0,1,.41-.59l.15-.09a.48.48,0,0,1,.16-.08H561l.41.18a.6.6,0,0,0,.09.15.33.33,0,0,1,.07.16.61.61,0,0,1,0,.19v.2l-.36.59c-.13.2-.24.4-.34.59a6.57,6.57,0,0,0-.26.61,2.84,2.84,0,0,1-.29.61l-.15.1-.17.09a.54.54,0,0,1-.18,0Zm-4.29-.07-.55-.37c-.12-.15-.24-.3-.35-.46l-.34-.48a2.27,2.27,0,0,1-.27-.48,1,1,0,0,1-.08-.57l.19-.37.15-.1a.33.33,0,0,1,.16-.07h.35l.37.19.3.53a4.86,4.86,0,0,0,.33.54,3.43,3.43,0,0,0,.43.5.65.65,0,0,1,.16.61L556,108l-.15.09a.36.36,0,0,1-.17.07h-.35Zm12.12,0-.41-.22a6.12,6.12,0,0,0-.39-.5c-.13-.16-.27-.32-.4-.5a4.74,4.74,0,0,1-.37-.51,1.12,1.12,0,0,1-.17-.59l.06-.13v-.13a.31.31,0,0,1,.06-.13,1.11,1.11,0,0,0,.07-.13l.15-.09a.38.38,0,0,1,.17-.08h.35l.37.19a2.55,2.55,0,0,0,.29.57c.13.19.26.38.41.56s.29.36.44.53a.8.8,0,0,1,.19.63l-.19.37a.6.6,0,0,0-.15.09.48.48,0,0,1-.16.08h-.32Zm-9.64-.37-.37-.18a5,5,0,0,1-.39-.52l-.33-.51c-.11-.18-.22-.36-.32-.56a1.14,1.14,0,0,1-.11-.63l.19-.37a.42.42,0,0,0,.14-.09.36.36,0,0,1,.17-.07h.35l.37.18c.08.13.14.25.2.37l.19.37a1.59,1.59,0,0,0,.22.35,2.71,2.71,0,0,1,.24.35h.07l.1.17.09.18a.61.61,0,0,1,0,.19v.2l-.19.37a.6.6,0,0,0-.15.09.48.48,0,0,1-.16.08h-.35Zm22.9,13.41-.37-.18-.15-.22a.5.5,0,0,1-.09-.24,1.31,1.31,0,0,1,0-.28V120a5.67,5.67,0,0,1,.18-1,4.9,4.9,0,0,0,.19-1,8.28,8.28,0,0,1,.13-1c.06-.33.11-.67.16-1h-.07l-.33.48a.6.6,0,0,0-.23.19l-.14.22a1,1,0,0,1-.17.18l-.2.15h-.44v.11a.12.12,0,0,1,.07.11.29.29,0,0,0,0,.13.29.29,0,0,1,0,.13v.15l-.19.37a.92.92,0,0,1-.31.16,1,1,0,0,1-.34.06h-.71a2.72,2.72,0,0,1-.69-.06h-2.16a3.11,3.11,0,0,1-.61,0h-.63a1.24,1.24,0,0,0-.57.11,1.21,1.21,0,0,1-.59.13l-.37-.18-.09-.15a.48.48,0,0,1,0-.29v-.18a.67.67,0,0,1,0-.2c0-.92.08-1.83.09-2.74s0-1.82.11-2.73.11-1.82.15-2.72a21.77,21.77,0,0,1,.28-2.67l.44-.3a.89.89,0,0,1,.5-.15H574a5.23,5.23,0,0,1,.56,0,6.73,6.73,0,0,0,1,.07,8.39,8.39,0,0,1,1,.06,5.57,5.57,0,0,0,1,0,1.44,1.44,0,0,1,.92.26,9.25,9.25,0,0,1,.26,2.16c0,.75,0,1.49,0,2.22s.08,1.46.12,2.22l.09,2.23h.07c.2-.25.39-.5.57-.76s.39-.51.59-.75.42-.5.61-.76l.59-.76a3,3,0,0,0,.41-.39,4.87,4.87,0,0,0,.35-.42c.11-.15.22-.3.34-.44l.31-.45-1.63-1.59-.11-.07c0,.1-.1.2-.16.3a2.9,2.9,0,0,0-.19.29,2.83,2.83,0,0,1-.2.28,1,1,0,0,1-.26.2h-.52l-.37-.19a.42.42,0,0,0-.09-.14.36.36,0,0,1-.07-.17.49.49,0,0,1,0-.17v-.18a12.19,12.19,0,0,1,.77-1.24c.3-.4.58-.82.84-1.24s.52-.83.79-1.23a11.27,11.27,0,0,1,.89-1.17l.24-.16a.54.54,0,0,1,.27-.11h.63a9.92,9.92,0,0,0,1,.4,3.48,3.48,0,0,0,1,.24,2.5,2.5,0,0,1,1,.36c.32.19.63.39.92.59a.42.42,0,0,0,.09.14,1,1,0,0,1,.1.17.61.61,0,0,1,0,.19v.2a3.73,3.73,0,0,1-.16.35c-.07.11-.13.22-.21.33a2.9,2.9,0,0,0-.2.33,3.45,3.45,0,0,1-.2.32,7.94,7.94,0,0,0-.58.72c-.18.26-.37.51-.55.76a8,8,0,0,1-.61.72,5.14,5.14,0,0,0-.59.72,1.22,1.22,0,0,1,.31.33c.09.12.18.24.28.35a1.81,1.81,0,0,0,.33.29,1.72,1.72,0,0,1,.34.32v.07l.77.52.11.22.7.59a3.89,3.89,0,0,0,.43.48l.48.46a5.24,5.24,0,0,1,.44.5,5.91,5.91,0,0,1,.35.52v.44l-.18.37-.15.09a.38.38,0,0,1-.17.08h-.35l-.37-.19-.89-1v.07c.08.42.14.84.19,1.26s.09.85.11,1.29a10.91,10.91,0,0,0,.07,1.29c.07.42.06.85.11,1.3l-.18.37a1.34,1.34,0,0,1-.24.12.77.77,0,0,1-.3.06.71.71,0,0,0-.29,0h-.28l-.61-.14a2.72,2.72,0,0,0-.63-.08h-1.31l-.79.08-.8.07a7.43,7.43,0,0,0-.81.09Zm5.5-1.7v-.07l-.22-3.1h-3.84l-.15.83a7.53,7.53,0,0,0-.11.83,4.85,4.85,0,0,1-.11.83l-.15.83h.22a4.14,4.14,0,0,0,.87-.09c.28,0,.57-.07.85-.09a6.32,6.32,0,0,1,.87,0h.88Zm-11.71-2.62v-1.14l.08-2.52h-1.07l-.11,3.66Zm3.14,0v-.37a4.78,4.78,0,0,1-.09-.76v-1.55a4.7,4.7,0,0,0,0-.75l-1.51-.19,0,2.71v.81Zm9.31-2-.26-.22-.78-.77-.88-.74a1,1,0,0,0-.28-.35l-.31-.26a2.68,2.68,0,0,1-.28-.3L584,112h-.11l-1.29,1.59h-.08l-.77,1.07-.19.22H585a3.84,3.84,0,0,0,.48,0h1a1.43,1.43,0,0,1,.46.07Zm-9.53-3v-.37a7,7,0,0,0-.06-.9v-1.81a6.91,6.91,0,0,0,0-.91h-1.11l-.14,3.91Zm-2.85-.14v-.34a4.34,4.34,0,0,1,.06-.88,4.41,4.41,0,0,0,0-.89v-1.81l-.81-.07h-.15v1a8.39,8.39,0,0,0-.06,1,6.77,6.77,0,0,1,0,1,8.39,8.39,0,0,0-.06,1Zm9.2-2.07.67-.74a9.22,9.22,0,0,0,.62-.78l.58-.79c.18-.26.36-.52.53-.79a1.29,1.29,0,0,0-.68-.26,6,6,0,0,1-.74-.13c-.23-.06-.47-.13-.7-.21l-.68-.22-.39.52a4,4,0,0,0-.37.54l-.33.55a3,3,0,0,0-.28.57l.22.3a1.21,1.21,0,0,1,.3.2c.09.09.19.17.27.26l.26.26.28.27.4.48Zm21,4.36c-.84-.08-1.68-.13-2.53-.17s-1.71-.07-2.59-.09l-2.58-.08h-3.57a2.09,2.09,0,0,0-.5,0,2,2,0,0,1-.49,0l-.13-.06h-.13l-.13-.06-.13-.07-.09-.15a.53.53,0,0,1-.08-.17.54.54,0,0,1,0-.18v-.21l.19-.37a3.43,3.43,0,0,1,1.18-.22h1.24a8.55,8.55,0,0,1,1.24,0h1.25c.71,0,1.44.07,2.18.07a15.77,15.77,0,0,1,2.18.1,14.36,14.36,0,0,0,2.18.07,6.26,6.26,0,0,1,2.1.31,1.3,1.3,0,0,0,.1.15.44.44,0,0,1,.07.19v.37l-.19.36-.16.1a.58.58,0,0,1-.21.07H605Z"/>
  </g>
</svg>
