<svg width="926" height="123" viewBox="0 0 926 123" fill="none" xmlns="http://www.w3.org/2000/svg">
<path d="M914.355 72.458L925.613 49.02L852.249 54.8457L845.776 67.9143L914.355 72.458Z" fill="#B1C800"/>
<path d="M137.78 66.1018L114.34 66.1414L114.879 21.9083L138.319 21.8687L137.78 66.1018Z" fill="#B1C800"/>
<path d="M369.77 4.51905L395.73 4.2417L395.69 74.8388L369.738 75.1162L369.77 4.51905Z" fill="#6F482C"/>
<path d="M319.57 22.4412L319.649 45.889L236.571 45.3502L236.492 21.9023L319.57 22.4412Z" fill="#B1C800"/>
<path d="M320.542 105.82L297.102 105.899L297.64 22.8209L321.08 22.7417L320.542 105.82Z" fill="#B1C800"/>
<path d="M162.765 34.0804C171.912 34.0804 179.326 26.6655 179.326 17.5187C179.326 8.37195 171.912 0.957031 162.765 0.957031C153.618 0.957031 146.203 8.37195 146.203 17.5187C146.203 26.6655 153.618 34.0804 162.765 34.0804Z" fill="#6F482C"/>
<path d="M567.782 36.8226C574.71 36.8226 580.326 31.2064 580.326 24.2785C580.326 17.3506 574.71 11.7344 567.782 11.7344C560.854 11.7344 555.238 17.3506 555.238 24.2785C555.238 31.2064 560.854 36.8226 567.782 36.8226Z" fill="#7A9437"/>
<path d="M599.872 34.4388C606.8 34.4388 612.416 28.8226 612.416 21.8947C612.416 14.9668 606.8 9.35059 599.872 9.35059C592.944 9.35059 587.328 14.9668 587.328 21.8947C587.328 28.8226 592.944 34.4388 599.872 34.4388Z" fill="#7A9437"/>
<path d="M156.945 115.534L204.562 54.2952L171.78 39.3896L156.945 115.534Z" fill="#7A9437"/>
<path d="M114.879 21.9023L204.581 54.2967L210.255 21.9023H114.879Z" fill="#7A9437"/>
<path d="M475.879 95.7181L521.982 35.0263L491.292 21.0796L475.879 95.7181Z" fill="#7A9437"/>
<path d="M533.734 29.3057L553.299 103.841L588.499 83.5155L533.734 29.3057Z" fill="#7A9437"/>
<path d="M807.232 38.2273C814.16 38.2273 819.776 32.6112 819.776 25.6832C819.776 18.7553 814.16 13.1392 807.232 13.1392C800.304 13.1392 794.688 18.7553 794.688 25.6832C794.688 32.6112 800.304 38.2273 807.232 38.2273Z" fill="#7A9437"/>
<path d="M839.31 35.8435C846.238 35.8435 851.854 30.2274 851.854 23.2995C851.854 16.3716 846.238 10.7554 839.31 10.7554C832.382 10.7554 826.766 16.3716 826.766 23.2995C826.766 30.2274 832.382 35.8435 839.31 35.8435Z" fill="#7A9437"/>
<path d="M715.293 97.1116L761.388 36.4198L730.706 22.4731L715.293 97.1116Z" fill="#7A9437"/>
<path d="M773.137 30.7046L792.694 105.232L827.901 84.9065L773.137 30.7046Z" fill="#7A9437"/>
<path d="M246.266 113.335L294.495 13.8775L265.373 -6.46133e-05L246.266 113.335Z" fill="#7A9437"/>
<path d="M0 115.655L83.7985 33.1421L46.1265 6.30078V26.1521L32.1811 54.5786L0 115.655Z" fill="#7A9437"/>
<path d="M653.77 43.0318L677.21 42.7861L677.178 106.133L653.738 106.386L653.77 43.0318Z" fill="#6F482C"/>
<path d="M611.848 74.4016L701.285 32.157L677.81 6.24512L611.848 74.4016Z" fill="#7A9437"/>
<path d="M347.305 54.0797L346.988 28.1277L462.801 27.7949L463.118 53.7548L347.305 54.0797Z" fill="#B1C800"/>
<path d="M396.551 122.115L447.891 18.4962L414.753 6.01562L396.551 122.115Z" fill="#7A9437"/>
</svg>
